<svg width="21" height="20" viewBox="0 0 21 20" fill="none" xmlns="http://www.w3.org/2000/svg">
<g clip-path="url(#clip0_420_466)">
<path d="M17.1864 6.93349C17.0759 7.01923 15.1248 8.1186 15.1248 10.5631C15.1248 13.3906 17.6075 14.3909 17.6818 14.4157C17.6704 14.4767 17.2874 15.7856 16.3728 17.1194C15.5574 18.293 14.7057 19.4648 13.4101 19.4648C12.1144 19.4648 11.781 18.7122 10.2853 18.7122C8.82774 18.7122 8.30949 19.4896 7.12438 19.4896C5.93927 19.4896 5.11236 18.4036 4.1616 17.0698C3.06032 15.5036 2.17053 13.0705 2.17053 10.7613C2.17053 7.05734 4.57887 5.09295 6.94909 5.09295C8.20851 5.09295 9.25835 5.91986 10.0491 5.91986C10.8017 5.91986 11.9753 5.04341 13.4081 5.04341C13.9512 5.04341 15.9022 5.09295 17.1864 6.93349ZM12.7279 3.47532C13.3205 2.77226 13.7397 1.79673 13.7397 0.821203C13.7397 0.685925 13.7282 0.548741 13.7035 0.438232C12.7394 0.474434 11.5924 1.08033 10.9007 1.88247C10.3577 2.4998 9.8509 3.47532 9.8509 4.46419C9.8509 4.6128 9.87567 4.76142 9.88711 4.80905C9.94808 4.82048 10.0472 4.83382 10.1462 4.83382C11.0112 4.83382 12.0992 4.2546 12.7279 3.47532Z" fill="black"/>
</g>
<defs>
<clipPath id="clip0_420_466">
<rect x="0.979736" y="0.438232" width="19.0533" height="19.0533" rx="9.52663" fill="white"/>
</clipPath>
</defs>
</svg>
