<svg xmlns="http://www.w3.org/2000/svg" viewBox="0 0 532 230.1"><g id="Layer_2" data-name="Layer 2"><g id="Layer_1-2" data-name="Layer 1"><path d="M8.47,212.18H63.26c0-1.13,0-2.26,0-3.39L5.53,205.13l-.09-3,37.19-2.42.06-.82H23.81l-.27-3.76,31.25-5,.28-1.17L25.5,183.56l8.76-2.39-.06-3L9.29,175.55l-.23-3.13c5.25-.35,10.51-.86,15.76-1,5.81-.18,11.62,0,17.63-2.4L4.83,163.63l0-1,39.5-3.81,0-.65H25.79l-.3-4,30.63-4.59-32.58-7.14L45.63,141l0-1.56H38.32L38,137.36,50.12,131l-14.88-4.47,10.88-4.47-15.86.9L30,120.41l15.22-3.27c-1.23-2.55-2-4.22-3.28-6.77l18.49-4.63,0-1.83-13.56-1.1,0-1,37.8-4.08.14-1.18L58.05,92.13l-.18-1.61,13.25-1.61L71,87.17l-61.8-4.8-.1-3.26H49.49l0-3.65L5,71,4.86,70l21.21-3.32.1-1.22L0,61l.06-2H14.2c2.62-4.09,4.41-9.07,5.95-8.94,10.67.87,19.72-4,27.75-12.52l-11.71-4.2.19-1.94,36.46-4,.22-1.27L52.49,20.35l-.34-1.76L108,14.36c0-.83,0-1.66,0-2.48H46.86L46.79,8.5,89.27,4.41,81,3.59,81,0h53.74C222.87,0,311-.08,399.11.12c36,.08,72.06.77,108.09,1.48,3.4.07,10-2.7,7.25,8.7h17.22l.15,3.75L429.9,22.13c0,1.05.06,2.1.08,3.15L462.59,33c-.58,2.49-1,4.37-1.58,6.75L474,42.6l-.17,2.93H408.87v3.41c9.24,0,18.53-.83,27.69.19,15.44,1.72,30.83,4.36,46.17,7.3,2.32.45,4.22,4.58,6.75,7.51l-3.32,4.78,15,3.41.05,2.15H479.14l-.21,3.22,16.82,2.28c0,.66.07,1.31.11,2l-13.35,4.1c-.07.81-.14,1.62-.2,2.42,9.25,2.26,18.54,4.29,27.73,6.93,2.2.64,4.06,3.27,6.08,5-.25,1-.49,2.1-.74,3.15h16.38l.24,2.8L488.75,114l38.19,3.33c0,.62,0,1.24,0,1.86l-59.05,5.69c18.18,1,36.35,2.09,54.52,3.28.38,0,.69,1.74,1.08,2.8l-24,1.64c0,.52,0,1-.07,1.57l15.77,1.44c-.15,2.84-.29,5.47-.45,8.55h16.49c0,.88.1,1.75.16,2.63l-49.65,5.84,8.24,3.35c-1.06,2-1.91,3.58-3.3,6.16l15.07,3.36c0,.54,0,1.07,0,1.61l-41.07,2.61c0,1,.05,2.08.07,3.12L475.32,176l-7.95,5.46c.06.74.13,1.47.19,2.21l14.33,2.58c-.07.79-.15,1.57-.22,2.36H466.18c-.08.42-.17.84-.25,1.26l23.72,5-3.73,7.26,15.45,3.08c-.08,1.21-.15,2.43-.23,3.64l-83.87-5.06-.17,1.51,54.19,10.48-4.83,7.23,15.27,3.46c0,1.1,0,2.21,0,3.31-11.51,0-23,.66-34.52-.12-37.38-2.53-74.73-5.86-112.12-8.29a219,219,0,0,0-41.95,1.66l17.47,4c-3.16,1.12-4.6,2.12-6,2-20.2-1.09-40.38-2.42-60.57-3.52-30.48-1.65-61-3.59-91.45-4.63-30.17-1-60.36-.81-90.53-1.69-17.81-.52-35.61-2.11-53.41-3.22Z"/></g></g></svg>