<svg id="Layer_1" data-name="Layer 1" xmlns="http://www.w3.org/2000/svg" viewBox="0 0 595.28 841.89"><defs><style>.cls-1{fill:#fff;}</style></defs><path d="M283.21,277a3.41,3.41,0,0,0,.12,2.53q2.09,7.54,3.42,15.26a114.54,114.54,0,0,1,1.38,29.75A72.77,72.77,0,0,1,280,352.77,68.86,68.86,0,0,1,262,374.05a83.08,83.08,0,0,1-30.67,15.85,41.52,41.52,0,0,1-14.62,1.51,26.85,26.85,0,0,1-5.38-1.07,13.16,13.16,0,0,1-8.84-8.51,30.12,30.12,0,0,1-1.51-11.42c0-1.15.13-2.29.19-3.27-.32-.3-.44-.49-.6-.55-11.43-4.39-23.16-6-35.26-3.61a42.73,42.73,0,0,0-22.6,11.61,39.65,39.65,0,0,0-10.28,18.54,64.87,64.87,0,0,0-1.55,22.73A72.57,72.57,0,0,0,134,431.44a39.4,39.4,0,0,0,4.66,9.94,17,17,0,0,0,3.91,4.24,7.63,7.63,0,0,0,8.71.73,17.81,17.81,0,0,0,4.2-3c1.89-1.92,3.53-4.08,5.26-6.15.44-.52.75-1.14,1.19-1.64a3.55,3.55,0,0,1,5.15-.47,19.19,19.19,0,0,1,2.69,2.64A6.27,6.27,0,0,0,176,440c2.3-.28,4.63-.32,6.94-.43a6.81,6.81,0,0,1,2,.12,3.37,3.37,0,0,1,2.47,3.76,7.06,7.06,0,0,1-.71,2.18,107.34,107.34,0,0,1-12.14,20,56.24,56.24,0,0,1-9.27,9.55,29.55,29.55,0,0,1-12.61,6.22,20.91,20.91,0,0,1-12.21-1.15,31.93,31.93,0,0,1-10.06-6.72A68.77,68.77,0,0,1,120,460.74a160.8,160.8,0,0,1-13.33-26c-2.85-6.87-5.46-13.83-8.19-20.75-.21-.53-.47-1-.76-1.66-.9.36-1.69.67-2.48,1a94.83,94.83,0,0,1-41.85,7.57,109.34,109.34,0,0,1-42.35-11,2.1,2.1,0,0,1-1.06-1c.53,0,1.06.05,1.59.13,26.28,3.89,49.41-2.55,68.9-21a76.6,76.6,0,0,0,9.45-11,4,4,0,0,0,.91-2.93,180.77,180.77,0,0,1-.51-30.69,178.93,178.93,0,0,1,5.08-32.3,232.11,232.11,0,0,1,16.79-45,172.64,172.64,0,0,1,18.19-29.58,106.63,106.63,0,0,1,19.5-19.75,69.3,69.3,0,0,1,25.83-12.67,64.06,64.06,0,0,1,30.71.2,91.36,91.36,0,0,1,30.08,13.9c2.39,1.64,4.71,3.39,7,5.18a3.52,3.52,0,0,0,2.94.78c8.42-1.25,16.89-2,25.37-2.61q15.92-1.15,31.87-.85c7,.13,13.92.34,20.86.75,6,.35,11.95.91,17.9,1.61,7,.81,14,1.8,20.95,2.85,9.74,1.48,19.39,3.5,28.95,5.9,13,3.25,26.05,6.43,39,9.93a293.78,293.78,0,0,1,45.55,16.11A182.43,182.43,0,0,1,518,283.23a164.32,164.32,0,0,1,45.16,59.53,189,189,0,0,1,13.39,42.75,232.19,232.19,0,0,1,3.87,51.35,241.92,241.92,0,0,1-4.37,39.43,10.49,10.49,0,0,0,.28,5.38,86.47,86.47,0,0,1,4.12,28A74.69,74.69,0,0,1,567.3,551c-.27.4-.55.79-.85,1.17a2.23,2.23,0,0,1-.44.36c-.53-.07-.5-.48-.51-.85,0-.77,0-1.55,0-2.32q0-34.5,0-69a21.73,21.73,0,0,1,.8-6,147.73,147.73,0,0,0,5.47-44.7,107.88,107.88,0,0,0-9.09-40.75,94.56,94.56,0,0,0-20.51-29.26c-.46-.45-1-.8-1.78-1.41-.13.85-.26,1.39-.29,1.92-.21,4.25-.39,8.5-.61,12.74-.41,8.11-1.26,16.18-2.26,24.24-1.53,12.38-3.69,24.64-6.39,36.81a393.94,393.94,0,0,1-12.45,43.72,22.87,22.87,0,0,0-1.14,4.77c-1.22,9.88-2.54,19.74-3.79,29.61s-2.46,19.75-3.71,29.62c-1.06,8.34-2.16,16.67-3.22,25-.87,6.81-1.7,13.62-2.55,20.42-.29,2.3-.62,4.59-.92,6.79-3.62,1.77-15.6,4-23,4.59a120.46,120.46,0,0,1-38.95-3.18c-.52-1.07.16-1.67.5-2.3,3.32-6.22,6.65-12.44,10.05-18.62a10.45,10.45,0,0,0,1.41-5.77c-.6-12.06-1.1-24.13-1.6-36.2-.31-7.43-.61-14.87-.84-22.31a10.85,10.85,0,0,0-1.44-5.21Q422.92,459,371.6,446.5a101.62,101.62,0,0,0-14-2.41,16.92,16.92,0,0,1-2-.41,16.05,16.05,0,0,1,.09-5.23c.72-9.25,1.55-18.49,2.22-27.74.36-4.91.52-9.84.68-14.77.07-1.91-.09-3.84-.15-5.67-.85-.34-1.07.1-1.19.58-.59,2.44-1.18,4.88-1.74,7.32a146.89,146.89,0,0,1-8.24,25.92,106.74,106.74,0,0,1-36.11,44.82l-2.9,2.09c-.08.75-.19,1.51-.22,2.26-.46,12.75-.94,25.5-1.36,38.25-.61,18.64-1.15,37.28-1.77,55.92-.32,9.56-.74,19.12-1.12,28.68,0,.85-.16,1.7-.25,2.68a111.16,111.16,0,0,1-49.62,1.83c.15-.94.22-1.69.4-2.41,1.41-5.71,2.82-11.43,4.3-17.14a8.66,8.66,0,0,0,0-4.52c-3.37-13.09-6.76-26.18-10-39.3-5-20.16-9.84-40.35-14.84-60.5-5.09-20.53-10.3-41-15.45-61.54-.23-.92-.45-1.85-.66-2.74.71-1,1.79-.94,2.66-1.19A108.56,108.56,0,0,0,250,397.79c16.25-10.59,28.36-24.66,35.57-42.76a90.25,90.25,0,0,0,6.29-29.91,112.55,112.55,0,0,0-7-44.07c-.5-1.35-1.14-2.64-1.72-4l-.3-.47s-.11.05-.16.07Z"/><path d="M316.28,477.34a175,175,0,0,0,16.9-12.66,162.48,162.48,0,0,0,14.69-14.42c2.59.19,4.95,1.09,7.38,1.63s4.67,1.18,6.94,1.77c3.55,5.84,28.4,79.14,33.76,99.52-2,3.79-12.87,13.6-19.71,18.1-8.92,5.87-21.73,11.79-27.94,12.65a7.87,7.87,0,0,1-.16-1.59c.75-8.46,1.47-16.93,2.33-25.38a9.36,9.36,0,0,0-.82-5q-14.58-32.51-29.1-65Z"/><path d="M538.29,569.7c-6,2.57-22,8.37-24.3,8.77a16.4,16.4,0,0,1,0-1.72c1.06-10.76,2.15-21.52,3.2-32.28.88-8.93,1.68-17.87,2.55-26.81s1.78-17.67,2.65-26.51c.44-4.42.83-8.84,1.3-13.26a10.42,10.42,0,0,1,.63-2.8q5.8-14.82,11.67-29.62c.17-.42.4-.82.6-1.21.71.15.46.61.48.93a6.34,6.34,0,0,1-.06,1.15q-.67,6.2-1.36,12.38c-.68,6.24-1.17,12.5-2.11,18.7-1,6.59,0,13.11.21,19.65.18,4.24.59,8.47.86,12.71.47,7.62.9,15.23,1.38,22.84.67,10.5,1.38,21,2,31.51C538.17,566,538.21,567.77,538.29,569.7Z"/><path class="cls-1" d="M283.21,277l-.54-.32c.05,0,.15-.08.16-.07l.3.47Z"/></svg>