<svg width="21" height="20" viewBox="0 0 21 20" fill="none" xmlns="http://www.w3.org/2000/svg">
<g clip-path="url(#clip0_420_455)">
<path d="M10.5064 19.8649C15.7678 19.8649 20.033 15.5996 20.033 10.3382C20.033 5.0768 15.7678 0.811584 10.5064 0.811584C5.24496 0.811584 0.979736 5.0768 0.979736 10.3382C0.979736 15.5996 5.24496 19.8649 10.5064 19.8649Z" fill="#1977F3"/>
<path d="M14.2146 13.0927L14.6366 10.3383H11.9947V8.55115C11.9947 7.79824 12.3631 7.06274 13.5474 7.06274H14.7491V4.71826C14.7491 4.71826 13.6586 4.53204 12.6163 4.53204C10.4407 4.53204 9.01789 5.85031 9.01789 8.239V10.3383H6.59839V13.0927H9.01789V19.7497C9.50287 19.8261 9.9999 19.865 10.5063 19.865C11.0127 19.865 11.5097 19.8248 11.9947 19.7497V13.0927H14.2146Z" fill="white"/>
</g>
<defs>
<clipPath id="clip0_420_455">
<rect x="0.979736" y="0.810303" width="19.0533" height="19.0533" rx="9.52663" fill="white"/>
</clipPath>
</defs>
</svg>
