<svg id="Layer_1" data-name="Layer 1" xmlns="http://www.w3.org/2000/svg" viewBox="0 0 595.28 841.89"><path d="M148.62,446.21c-27,32.64-62,51.15-104,60.07,27.85-57.9,28-115.07,0-173.31,42.28,8.73,77.22,27.53,103.75,59.61,14-12.52,27.53-25.49,42-37.34a276.62,276.62,0,0,1,74.51-43.34,15.66,15.66,0,0,0,7.18-5.69c13.94-22.2,27.6-44.58,41.33-66.91.87-1.42,1.65-2.9,2.64-4.64,18,6,34.93,14.15,49.83,25.46,16.37,12.43,31.53,26.45,47.33,39.64a22.18,22.18,0,0,0,8,4.58c44,11.84,81.46,33.79,109,70.85a129.55,129.55,0,0,1,19.21,36.67,23,23,0,0,1,0,15.3c-7.95,23.69-22,43.29-40,60.22-25.72,24.19-56.39,39.12-90.33,48a18.57,18.57,0,0,0-8.92,5.75A150.57,150.57,0,0,1,336,589.57a13.11,13.11,0,0,1-1.48.33c-1.7-12.95-3.51-25.67-5-38.43-.76-6.66-3.52-9.34-10.75-10.32-58.79-8-107.69-36-150.47-76C161.78,459.06,155.4,452.74,148.62,446.21Zm310.13-82.15c-10.19,0-18.86,8.9-18.82,19.21,0,9.91,8.75,18.51,18.81,18.56A19.05,19.05,0,0,0,477.81,383,19.27,19.27,0,0,0,458.75,364.06Z"/></svg>