<svg width="20" height="20" viewBox="0 0 20 20" fill="none" xmlns="http://www.w3.org/2000/svg">
<g clip-path="url(#clip0_420_708)">
<path d="M19.1276 9.92336C19.1276 9.13741 19.0681 8.56581 18.9254 7.9704H9.9939V11.5072H15.2386C15.1316 12.3884 14.5607 13.7102 13.2882 14.6033L13.2763 14.7224L16.0949 16.9135L16.2852 16.9373C18.0929 15.2702 19.1276 12.8171 19.1276 9.92336Z" fill="#4285F4"/>
<path d="M9.99401 19.2356C12.5628 19.2356 14.7154 18.3901 16.2972 16.9254L13.3002 14.5913C12.4915 15.151 11.4211 15.544 10.0059 15.544C7.48463 15.544 5.35582 13.8768 4.59469 11.5905L4.48765 11.6024L1.53824 13.8768L1.50256 13.984C3.06052 17.0921 6.27157 19.2356 9.99401 19.2356Z" fill="#34A853"/>
<path d="M4.58275 11.5905C4.38057 10.9951 4.26164 10.364 4.26164 9.709C4.26164 9.05404 4.38057 8.4229 4.57085 7.82749V7.6965L1.59766 5.38629L1.50252 5.43392C0.848413 6.72002 0.479736 8.17283 0.479736 9.709C0.479736 11.2452 0.848413 12.698 1.49062 13.9841L4.58275 11.5905Z" fill="#FBBC05"/>
<path d="M9.99394 3.86203C11.7779 3.86203 12.9909 4.63607 13.6688 5.27912L16.3566 2.6593C14.7035 1.12313 12.5628 0.182373 9.99394 0.182373C6.2715 0.182373 3.06045 2.32587 1.4906 5.43393L4.57083 7.8275C5.34386 5.5292 7.47267 3.86203 9.99394 3.86203Z" fill="#EB4335"/>
</g>
<defs>
<clipPath id="clip0_420_708">
<rect x="0.479736" y="0.182373" width="19.0533" height="19.0533" rx="9.52663" fill="white"/>
</clipPath>
</defs>
</svg>
