<svg xmlns="http://www.w3.org/2000/svg" viewBox="0 0 383.32 239.59"><g id="Layer_2" data-name="Layer 2"><g id="Layer_1-2" data-name="Layer 1"><path d="M0,6C1.73,2.34,4.24-.29,8.61,0,32,1.71,55.37,3.56,78,10.49a76,76,0,0,1,12,5.15c4.77,2.43,6.8,6.39,5.58,11.81-.29,1.31-.31,2.68-.51,4.54h3.93c18.84,0,37.68.07,56.52-.09a11.16,11.16,0,0,0,6.06-2.1c11.85-8.63,24.61-14.11,39.66-12.6,9.56,1,18.36,4.32,27.11,8,13.31,5.62,26.7,11.05,40.06,16.54,1.12.46,2.3.76,3.53,1.17-.22-7,1.18-9,7.73-11.57,21.47-8.3,43.87-12.25,66.68-14.12,9.07-.74,18.18-1,27.28-1.28,6.58-.22,9.75,2.92,9.75,9.42q0,70.37,0,140.74c0,6.54-3,9.6-9.63,9.62q-21.9.07-43.79,0c-6.73,0-8.89-1.61-10.82-7.95l-1.55-5.12c-4.08,2.73-7.8,5.13-11.39,7.72a3.19,3.19,0,0,0-.82,2.55c1.75,14.4-9.84,27.81-25,29.06a5,5,0,0,0-3.34,2.1c-6.83,11.16-17,15.68-29.69,15-2.06-.12-3,.2-4.11,2-7.08,11.78-21,17.48-31.94,13.73a3.14,3.14,0,0,0-2.39.21c-9.58,6-19.62,5.32-29.91,2.34-9.79-2.83-18.07-8.31-25.95-14.48-19.84-15.52-39.89-30.79-59.32-46.81-10-8.22-18.79-17.84-28.44-27.12-.52,1.56-1.06,3.24-1.65,4.91-1.3,3.69-3.84,5.77-7.82,5.78-15.85,0-31.69,0-47.53,0-4.07,0-6.26-2.47-8.24-5.44ZM231.21,211.34l-2.15-2.27q-16.92-17.2-33.84-34.42a18.24,18.24,0,0,1-2-2.25,7.91,7.91,0,0,1,11.56-10.67c1.32,1.13,2.44,2.49,3.68,3.72,11.45,11.48,22.77,23.08,34.41,34.35,5.15,5,12.91,4.32,18.06-.73,2.26-2.22,2.48-3.85-.09-6.4-14.27-14.13-28.34-28.46-42.4-42.8-3.78-3.86-3.76-8.68-.28-11.93s7.92-2.92,11.64.8c3.89,3.88,7.62,7.91,11.49,11.8,10.74,10.78,21.44,21.6,32.35,32.21a10.05,10.05,0,0,0,6.43,2.86,9.68,9.68,0,0,0,8.44-13.5,27,27,0,0,0-4.76-7.54c-5.21-5.7-10.35-11.55-16.2-16.55C244.92,128.66,222,109.59,199.13,90.5a4.33,4.33,0,0,0-3.56-.38c-3.89,1.29-7.6,3.16-11.54,4.26a12.87,12.87,0,0,0-6.67,4.22c-11,12.64-24.58,17.87-41.2,13.65-13.15-3.34-19.3-13.14-16.68-26.48,2.49-12.61,9.22-23,17.19-32.75,1.28-1.57,2.63-3.08,4.23-5H92.34c-1,4.63-1.79,9.17-3,13.6-5.86,22.15-11.85,44.26-17.69,66.42-.35,1.34-.33,3.47.48,4.31,9.44,9.77,18.35,20.24,28.79,28.84,22.61,18.61,45.9,36.42,69.25,54.11,4.72,3.57,10.87,5.34,16.53,7.49,2.33.88,5.12.58,7.69.82-4.34-5.43-8.86-9.88-13.28-14.44-6.43-6.62-12.87-13.24-19.13-20a7.78,7.78,0,0,1,.33-11.38c3.14-2.9,7.75-2.75,11.12.4,1.09,1,2.06,2.17,3.12,3.23,12,12,24,24,36.15,35.8,3.5,3.41,6.85,3.72,10.89,1.08C226.42,216.5,228.63,213.77,231.21,211.34ZM298,156.49c4.35-2.91,8.55-5.59,12.55-8.53a3.66,3.66,0,0,0,1.08-3.24Q297.46,105.36,283,66.11a5.34,5.34,0,0,0-2.66-2.74Q247.65,50.07,214.88,37c-13.19-5.28-26.25-6.06-38.61,2.2-13.16,8.8-25,19.2-33.51,32.65-3.28,5.17-5.55,11.1-7.52,16.94-1.56,4.66-.05,6.78,4.7,7.85a31,31,0,0,0,9.56.91c8.24-.76,13.53-6.2,18.34-12.34,1.48-1.89,3.34-4,5.47-4.79,7.53-2.86,15.27-5.12,22.88-7.79,3.73-1.31,6.68-.46,9.6,2.06,11.89,10.26,23.8,20.51,35.85,30.58C261.06,121.45,281.41,136.61,298,156.49ZM291.09,44.15c1.91,4.48,3.86,8.51,5.38,12.7q18,49.7,35.78,99.48c.91,2.56,1.95,3.48,4.66,3.39,6.6-.2,13.22-.06,19.83-.06h10.41V32.06C341.14,32.73,315.86,36.09,291.09,44.15Zm-275,99.43h34c1.7-5.47,3.44-10.79,5-16.16,9.32-31.66,18.71-63.3,23.85-96,.49-3.09-.29-4.43-3-5C65,24.07,54,21.46,43,19.57c-8.8-1.51-17.75-2.14-26.9-3.18Z"/></g></g></svg>