<svg version="1.1" id="Layer_1" xmlns="http://www.w3.org/2000/svg" xmlns:xlink="http://www.w3.org/1999/xlink" x="0px" y="0px"
	 width="100%" viewBox="0 0 496 496" enable-background="new 0 0 496 496" xml:space="preserve">
<path fill="#000000" opacity="1.000000" stroke="none" 
	d="
M184.362488,244.740723 
	C180.743790,244.381485 178.129303,243.068787 176.979980,239.889191 
	C176.268631,237.921265 176.955780,236.303665 178.944733,235.478134 
	C180.511169,235.363113 180.797241,236.765335 181.633545,237.479202 
	C184.672913,240.073441 187.977966,239.138107 188.956284,235.261276 
	C190.047272,230.938034 191.696762,227.834824 198.148483,231.048187 
	C196.164337,225.350510 196.265930,220.248657 190.817368,217.934174 
	C188.738373,217.051071 188.085144,215.059494 187.562363,213.150238 
	C186.255600,208.377853 183.458725,204.878540 179.137650,202.513931 
	C176.892868,201.285538 175.099579,199.525894 174.006958,197.202469 
	C172.995193,195.050980 172.150116,192.693970 174.058701,190.655533 
	C175.732193,188.868210 177.944702,189.040710 180.109436,189.814575 
	C180.829437,190.071976 181.538940,190.358734 182.426407,190.698334 
	C180.981583,183.041031 178.685501,180.726578 172.852936,180.269547 
	C169.254181,179.987549 166.661545,180.855576 165.664795,184.714371 
	C164.803711,188.048035 162.505234,190.178635 159.298386,191.207916 
	C154.939346,192.606995 152.330170,195.313583 151.489471,199.944244 
	C150.897797,203.203247 149.748962,206.363495 148.806793,209.555405 
	C148.372177,211.027786 147.893707,212.581573 148.974808,213.855545 
	C152.408234,217.901459 151.013748,221.708054 149.010162,225.866348 
	C145.740479,232.652267 149.090271,239.037018 156.234039,240.315308 
	C156.445648,240.071228 156.836868,239.821075 156.833603,239.576202 
	C156.716782,230.811035 156.711639,230.814301 165.820984,230.897812 
	C169.313461,230.929825 172.806625,230.920364 176.298035,230.995865 
	C176.723282,231.005035 177.139603,231.426254 177.587906,231.671783 
	C178.048645,234.310287 176.172455,234.849518 174.379623,235.172989 
	C172.093506,235.585449 169.758133,235.903839 167.441437,235.921249 
	C164.730179,235.941650 162.901703,236.839066 162.440781,239.658737 
	C161.876572,243.110413 160.125900,244.140472 156.441452,244.623978 
	C149.265045,245.565704 142.131058,244.860001 134.996719,245.286011 
	C133.072906,245.400879 130.719543,245.800095 129.960388,243.228165 
	C129.246399,240.809296 130.875565,239.550446 132.842880,238.671448 
	C136.439560,237.064438 136.748093,233.513901 137.655029,230.384140 
	C142.423752,213.927505 147.148773,197.458069 151.831329,180.976715 
	C152.594894,178.289200 153.985016,176.576721 156.932053,176.364761 
	C164.229340,175.839874 171.523621,175.272110 178.817490,174.700989 
	C182.689285,174.397797 183.257416,177.285965 184.218704,180.016037 
	C190.301178,197.290222 196.458908,214.540253 205.008209,230.802490 
	C206.532761,233.702423 207.942657,236.912735 212.485077,236.844025 
	C212.852768,234.893188 213.535995,232.966934 213.527863,231.043610 
	C213.460876,215.200897 215.905884,199.531631 216.673569,183.750229 
	C217.050018,176.010986 218.348450,174.525360 225.934509,174.943466 
	C231.287704,175.238541 236.525314,175.432877 241.690079,173.684647 
	C245.560150,172.374680 246.668350,174.760712 247.209442,177.956955 
	C248.567596,185.979782 250.940247,193.665588 255.277603,202.172348 
	C257.741058,193.463455 259.905853,186.012878 259.695892,178.218109 
	C259.575073,173.733215 261.091553,172.183472 265.450684,172.541885 
	C271.091675,173.005707 276.736786,173.148270 282.354156,171.856613 
	C285.533203,171.125610 287.884369,172.094620 288.309174,175.920181 
	C289.965942,190.840927 294.418243,205.179398 297.613403,219.779480 
	C298.407654,223.408768 298.729767,227.242371 301.292786,231.388779 
	C302.795197,215.084259 303.432739,199.724518 301.837036,184.316177 
	C301.603912,182.065094 300.203247,180.823486 298.659485,179.496078 
	C295.757965,177.001221 296.805267,175.279190 299.909210,174.126038 
	C300.368927,173.955231 300.893890,173.831009 301.375336,173.866531 
	C315.465759,174.906128 329.749908,173.879089 343.651367,176.600540 
	C357.835632,179.377319 362.855316,193.922485 354.394531,205.899551 
	C354.115265,206.294861 353.934692,206.759903 353.658417,207.287384 
	C355.030273,210.045975 358.191071,211.044998 359.704895,213.751328 
	C364.886017,223.013916 360.387909,235.646088 350.023560,240.012161 
	C344.597443,242.297974 338.839233,243.157608 332.962708,243.302399 
	C322.476715,243.560760 311.923950,243.894073 301.517578,243.491577 
	C294.515076,243.220734 287.404053,242.480545 280.310974,242.236862 
	C276.332977,242.100189 276.350159,238.588745 275.986328,235.949463 
	C275.055511,229.197311 274.470520,222.397659 273.733093,215.618546 
	C273.536682,213.812988 273.289276,212.012985 272.671173,210.168732 
	C269.964325,219.103668 268.471283,228.279327 267.486725,237.477798 
	C266.982849,242.185654 265.532440,244.267746 260.622589,244.535233 
	C248.859848,245.176086 248.824493,245.380219 244.701324,234.466034 
	C242.937881,229.798111 241.408676,225.041702 238.927994,220.291595 
	C238.927994,223.396393 238.968140,226.501923 238.911240,229.605682 
	C238.882339,231.182541 238.458191,232.792252 236.591782,232.919174 
	C234.796036,233.041290 234.079514,231.581879 233.666779,230.044327 
	C233.580505,229.722916 233.440887,229.386826 233.466202,229.068665 
	C234.187241,220.001938 234.904968,210.934784 235.698715,201.874298 
	C235.769882,201.061859 236.476486,200.426682 237.473907,200.229004 
	C239.507904,200.606232 239.137436,202.340210 239.278717,203.738541 
	C239.809509,208.991882 242.084488,213.709122 244.446625,218.224091 
	C246.336777,221.836899 250.112762,219.292236 253.021530,219.237686 
	C254.602814,219.208023 256.134399,218.023148 257.746796,217.817627 
	C260.350006,217.485794 262.330719,218.655853 263.086578,221.280258 
	C263.805878,223.777893 262.830780,225.591751 260.325989,226.295776 
	C255.778778,227.573883 256.376648,234.291138 250.482132,234.063736 
	C252.564850,237.933289 255.368378,238.330063 258.189178,238.126877 
	C261.185425,237.911041 262.188660,235.536942 262.777252,232.948410 
	C264.510193,225.327072 266.167603,217.686081 268.075989,210.108536 
	C268.697845,207.639359 268.127960,206.261719 266.181091,204.599197 
	C260.384125,199.648865 260.796783,194.390076 267.001648,189.816055 
	C271.703613,186.349915 273.077515,183.948700 273.833862,177.875320 
	C266.179169,176.450668 265.463989,176.829163 263.677917,183.894379 
	C261.965637,190.667862 260.400879,197.478531 258.721161,204.260437 
	C258.270935,206.078262 258.035370,207.884995 258.625092,209.674332 
	C259.383972,211.976929 258.772766,213.672455 256.493561,214.489105 
	C254.022110,215.374619 252.817047,213.682846 251.850677,211.817154 
	C250.936630,210.052414 249.721466,208.334763 249.289764,206.447464 
	C247.156738,197.122467 237.612579,193.668747 233.344315,186.047318 
	C232.355118,184.281021 230.411301,183.957596 228.472870,184.717697 
	C227.701279,185.020233 226.980194,185.451675 226.236526,185.825241 
	C217.398911,190.264694 217.235535,191.717270 225.683243,197.228470 
	C228.518906,199.078430 231.550598,200.486450 229.749374,204.415222 
	C227.807983,208.649811 224.338043,207.078690 220.991821,205.666595 
	C219.608658,208.390518 219.945435,210.921783 220.341431,213.264603 
	C221.510315,214.466049 222.769470,213.934235 223.875793,214.138474 
	C229.813538,215.234711 232.196030,218.600143 230.789429,224.488419 
	C230.023331,227.695511 230.088150,230.680008 231.186600,233.785538 
	C231.960876,235.974548 232.703247,237.717102 235.492950,237.787323 
	C237.452896,237.836639 239.061768,238.884567 239.131516,241.141663 
	C239.200165,243.362915 237.577682,244.444244 235.787842,244.989273 
	C228.999054,247.056519 220.699615,249.010757 215.271545,246.232071 
	C204.705826,240.823288 194.836319,245.613663 184.362488,244.740723 
M333.187286,183.637039 
	C332.192780,187.384415 330.312378,191.224991 336.225830,192.982895 
	C338.230743,193.578888 339.178436,196.363419 337.760834,198.053009 
	C333.630432,202.975998 330.690247,209.828247 322.897888,209.900085 
	C318.118378,209.944153 316.089294,212.320435 314.915344,216.455368 
	C313.778748,220.458740 312.511902,224.598862 309.258392,227.394363 
	C305.527985,230.599625 305.986938,233.781876 308.320923,237.673279 
	C311.080627,237.161682 312.675171,235.132187 314.440155,233.505844 
	C317.947662,230.273849 321.570435,229.458374 325.679413,232.336548 
	C328.587860,234.373779 331.699524,234.097717 334.700012,232.681076 
	C339.307373,230.505814 343.888763,230.049545 348.672791,232.066742 
	C352.737549,233.780655 355.115448,231.795288 356.210724,228.060791 
	C359.213501,217.822586 354.987488,211.153519 344.495178,209.546707 
	C341.876984,203.851303 349.546265,206.116302 349.913300,202.692429 
	C339.525360,196.852402 336.917542,189.201706 343.672119,180.996841 
	C341.240051,179.750595 338.685272,179.430725 336.033081,179.279160 
	C333.172119,179.115646 332.506348,180.403427 333.187286,183.637039 
M297.251526,231.378586 
	C296.487518,223.756912 294.595276,216.371719 292.462891,209.048035 
	C291.357269,205.250793 279.732269,201.525864 276.629639,203.853470 
	C275.395782,204.779160 275.205292,206.038895 275.401428,207.408279 
	C276.003693,211.613037 276.644958,215.812210 277.397827,220.864288 
	C279.574005,216.263657 282.752625,214.727509 286.720154,216.067032 
	C290.633392,217.388199 290.783417,220.884354 290.434753,224.362595 
	C290.195953,226.744675 290.468109,229.188599 291.719208,231.097153 
	C292.951050,232.976212 294.743103,235.663925 297.251526,231.378586 
M309.035645,192.569489 
	C310.099121,187.218887 313.498535,183.307663 318.122070,179.199646 
	C314.626160,179.199646 312.166779,179.178070 309.708008,179.206711 
	C307.862823,179.228195 306.359161,179.841522 306.387177,181.993774 
	C306.453857,187.120956 305.880066,192.286407 306.994873,198.829544 
	C307.910492,196.053391 308.368378,194.665039 309.035645,192.569489 
M332.464813,194.846405 
	C330.744476,194.160721 328.955658,193.585709 327.697693,195.506729 
	C327.052032,196.492737 327.162140,197.779739 327.941986,198.719803 
	C329.041748,200.045547 330.645172,199.934921 331.993805,199.386093 
	C333.956360,198.587448 333.911194,197.007416 332.464813,194.846405 
z"/>
<path fill="#000000" opacity="1.000000" stroke="none" 
	d="
M232.034103,291.970581 
	C233.350601,294.717682 231.392029,294.657990 229.662674,294.670685 
	C217.700317,294.758636 208.365829,282.709930 211.201859,270.868347 
	C214.350342,257.722198 227.808258,248.338699 241.845413,249.822586 
	C248.140244,250.488022 254.235306,252.277893 260.171417,254.535233 
	C263.885529,255.947586 265.416229,257.966888 262.537170,261.604218 
	C260.004761,264.803619 258.772186,268.541107 257.880219,272.509979 
	C257.119843,275.893372 255.445724,277.637817 252.016098,274.439148 
	C248.653519,271.303009 244.510025,271.735596 239.633926,272.630890 
	C243.195084,275.869263 247.232040,276.341339 250.826752,277.555267 
	C258.526550,280.155548 265.070709,283.905975 265.993378,292.835846 
	C266.953064,302.123749 263.662201,309.858673 255.877335,315.353882 
	C247.369965,321.359100 237.800980,321.370209 228.053040,320.014191 
	C224.761734,319.556335 221.497437,318.882904 218.238022,318.222900 
	C214.638489,317.494049 210.870880,315.313171 208.219543,320.110138 
	C207.719757,321.014404 206.175812,321.502563 205.026154,320.962738 
	C199.755020,318.487640 194.582626,320.427246 189.368362,321.120331 
	C187.722824,321.339050 186.045151,321.389832 184.382172,321.390259 
	C178.404312,321.391693 176.769928,319.321106 178.468246,313.689026 
	C180.070084,308.376953 180.853577,302.989288 180.657471,297.443817 
	C180.237442,285.567841 179.948425,273.684082 178.649948,260.591187 
	C171.183945,273.989502 166.112564,286.971802 161.175507,300.011688 
	C159.230392,305.149139 157.249847,310.278687 155.520660,315.489929 
	C154.674332,318.040497 153.310043,319.242828 150.591705,319.558533 
	C145.272964,320.176147 139.951157,320.202728 134.623825,320.156708 
	C131.743927,320.131866 128.928986,319.196899 129.009933,315.834320 
	C129.095688,312.271973 131.865143,311.884552 134.850937,312.341797 
	C135.784531,312.484802 137.327820,312.586487 137.664658,312.084656 
	C141.580124,306.251099 149.015015,303.266968 150.600952,295.477234 
	C151.731155,289.925934 154.887665,286.085663 161.355560,286.605621 
	C163.306519,286.762482 164.376785,285.667908 165.052139,283.912659 
	C168.040283,276.146515 171.075851,268.398529 174.112076,260.650970 
	C175.282318,257.664825 174.384857,256.451019 171.095810,256.251068 
	C161.787735,255.685272 159.601974,258.629395 162.711319,268.068970 
	C163.826538,271.454651 165.093506,274.853546 161.921646,277.801575 
	C158.536743,280.947601 154.919662,280.067108 151.303268,278.149414 
	C150.890381,277.930481 150.371552,277.911377 149.937347,277.808075 
	C145.225098,283.237274 146.154175,290.540833 143.853836,297.139862 
	C139.983047,294.784668 140.312454,291.250793 139.864258,288.376709 
	C138.318176,278.462189 134.310974,269.196289 132.540924,259.355286 
	C132.170410,257.295319 130.663086,256.276093 128.572159,256.252563 
	C125.947433,256.222992 123.322128,256.245453 120.605446,256.245453 
	C120.705505,258.379181 122.199310,258.833130 123.199745,259.416260 
	C128.871490,262.722229 131.916931,267.020874 129.530930,273.864319 
	C128.863297,275.779236 130.197372,277.351990 131.057312,278.965118 
	C132.541306,281.748932 134.000137,284.548248 135.384140,287.382721 
	C136.580063,289.832031 136.406799,292.510895 134.929993,294.561066 
	C132.399002,298.074707 127.874809,300.454346 130.417068,305.948822 
	C126.061775,306.100494 125.248558,303.585022 124.615036,301.522675 
	C120.013130,286.541687 113.510414,272.283783 108.142937,257.599152 
	C106.000076,251.736572 107.985550,248.838699 114.257889,249.006714 
	C120.384102,249.170822 126.509499,250.081787 132.587997,250.983459 
	C135.300125,251.385803 136.605225,253.645340 137.302597,256.250977 
	C139.364243,263.954010 141.504379,271.636047 143.820831,280.080994 
	C146.877243,274.859039 147.819016,269.536438 149.482315,264.532227 
	C154.175766,250.411575 154.037781,250.997635 168.769333,252.133102 
	C178.773407,252.904190 189.030182,252.525192 198.903946,249.896683 
	C205.813782,248.057205 204.978439,248.240570 205.555176,255.024338 
	C205.983826,260.066071 205.400482,265.275299 206.754120,270.264832 
	C207.275314,272.185852 207.652313,274.156036 205.785782,276.242371 
	C199.062653,271.492065 191.475876,274.579865 184.271194,273.689636 
	C183.112808,279.905823 186.654785,286.979034 192.296295,289.660431 
	C193.344910,290.158844 194.473648,290.486786 195.558243,290.911682 
	C203.529617,294.034424 205.187714,298.987640 200.749344,306.183044 
	C199.751999,307.799927 197.842072,309.223633 198.893265,311.500702 
	C199.388031,312.572418 200.463211,312.512665 201.508682,312.176117 
	C204.309448,311.274536 204.045197,308.913727 203.939758,306.798492 
	C203.567291,299.325500 204.285202,291.809937 202.939438,284.367096 
	C202.601456,282.497833 202.239441,279.783661 205.062683,279.651489 
	C207.870926,279.520050 207.636627,282.217224 207.650574,284.145874 
	C207.710770,292.456970 207.676315,300.768738 208.420929,309.241699 
	C211.274780,305.211090 214.792587,301.622467 214.118759,296.233246 
	C213.910187,294.565002 214.229248,293.228729 215.702347,292.373627 
	C217.318771,291.435364 218.637314,292.454315 219.784973,293.354645 
	C223.343414,296.146240 226.919006,298.921600 231.553101,299.583801 
	C236.363434,300.271210 237.483063,298.912231 236.089172,294.106628 
	C238.183884,293.034271 239.480453,294.046417 240.486938,295.763306 
	C241.594681,297.652832 241.077972,299.375275 239.545349,300.691498 
	C236.843964,303.011444 233.734238,303.610321 230.206528,302.848999 
	C226.273453,302.000122 222.872330,299.830963 218.717545,298.309174 
	C216.404083,302.500519 214.357468,306.510315 214.060516,312.701416 
	C219.601227,308.665527 225.104797,309.841095 230.476959,309.740204 
	C232.568069,309.700958 234.388794,308.934845 236.072342,307.830597 
	C239.061859,305.869812 242.228912,304.692230 245.876099,304.593475 
	C249.858719,304.485596 252.078995,302.385071 251.707535,298.194550 
	C251.264694,293.198730 252.502319,288.949158 256.906281,286.141022 
	C256.733582,284.069275 255.128723,283.773590 253.979111,283.018280 
	C248.128784,289.173798 238.681656,286.508392 232.119247,291.860168 
	C227.608597,287.730835 227.436539,285.509003 230.938385,281.997772 
	C233.143585,279.786682 234.613174,277.504974 234.266830,274.111816 
	C233.866333,270.188354 236.519165,268.421997 239.968964,267.827789 
	C242.982422,267.308746 245.934784,267.910828 248.807327,268.914581 
	C250.315353,269.441528 251.914261,270.512207 253.390640,268.180481 
	C250.708359,264.882782 250.113251,260.938568 251.163300,256.891998 
	C248.312119,254.984406 246.071747,254.694992 244.068527,257.645844 
	C242.535995,259.903320 240.232254,261.354889 237.717438,262.340363 
	C233.714310,263.909119 230.987549,266.308990 230.544693,270.957397 
	C230.124817,275.364594 227.058884,277.066071 222.936859,277.363556 
	C220.457535,277.542511 218.080856,276.977325 215.608887,276.237915 
	C214.589050,280.160461 215.723770,283.118134 218.298935,285.564240 
	C222.147522,289.219940 226.593018,291.685699 232.034103,291.970581 
M201.248611,256.106689 
	C199.084579,254.688004 197.466324,256.402252 194.838577,256.746307 
	C199.582901,258.650818 199.582901,258.650818 201.248611,256.106689 
z"/>
<path fill="#000000" opacity="1.000000" stroke="none" 
	d="
M76.534630,217.578873 
	C76.488060,206.957733 77.165184,196.796143 76.089645,186.650146 
	C75.778763,183.717438 75.104103,181.337097 72.562233,179.354324 
	C69.906891,177.283081 70.606956,174.798508 73.906113,174.081650 
	C75.979309,173.631165 78.215759,173.754349 80.366081,173.866684 
	C90.669670,174.404907 100.970322,175.003036 111.269302,175.624817 
	C130.957718,176.813507 138.236801,190.699844 127.529327,207.720734 
	C132.637878,211.184311 135.814804,215.728088 135.470551,222.500275 
	C135.004211,231.674316 130.820816,237.982101 122.057907,240.837280 
	C117.456635,242.336487 112.691376,243.137970 107.834312,243.291870 
	C96.851929,243.639862 85.844604,242.652145 74.875412,243.973053 
	C72.895973,244.211426 70.684921,244.063019 69.839668,241.726395 
	C69.054825,239.556763 70.535622,238.282593 72.200348,237.325043 
	C75.290977,235.547363 75.374146,232.464493 75.647606,229.499496 
	C75.999146,225.687927 76.220535,221.864349 76.534630,217.578873 
M117.359093,198.043488 
	C112.519325,190.890793 112.553513,188.317352 117.706856,180.979996 
	C114.279472,179.452011 110.853462,178.796616 106.845070,179.822662 
	C108.051476,183.493073 106.149620,186.655884 105.560616,190.123627 
	C107.146812,191.018082 108.646889,191.731598 110.000740,192.658646 
	C111.998924,194.026962 113.309380,196.324951 111.725159,198.202286 
	C107.466187,203.249298 104.295639,210.110657 96.222664,210.046829 
	C92.079460,210.014053 90.279213,212.172546 89.174995,215.703857 
	C87.834641,219.990402 86.658127,224.497772 83.121796,227.560928 
	C79.330894,230.844589 80.279724,234.017242 82.360252,237.532684 
	C85.360252,237.134338 86.868149,234.976410 88.677574,233.343277 
	C92.056984,230.293137 95.513359,229.442749 99.466911,232.290100 
	C102.325874,234.349136 105.465027,234.200912 108.486870,232.758621 
	C113.254471,230.483063 117.998215,230.077255 122.945992,232.138779 
	C125.887978,233.364548 128.067307,232.321625 129.594315,229.553772 
	C134.111282,221.366379 129.897919,212.072678 120.758194,210.309616 
	C119.363167,210.040512 118.144783,209.999344 118.004448,208.173843 
	C117.865952,206.372330 118.572823,205.307266 120.333008,204.941376 
	C121.751228,204.646576 123.426849,204.784943 123.912094,202.651047 
	C121.919388,201.309586 119.892960,199.945419 117.359093,198.043488 
M88.213234,182.904419 
	C89.268150,181.910538 90.323067,180.916672 92.051613,179.288147 
	C88.487328,179.288147 85.729630,179.236511 82.975166,179.308487 
	C81.448601,179.348389 80.429611,180.195068 80.418030,181.797333 
	C80.378319,187.295044 80.402794,192.793213 80.402794,198.291214 
	C82.798782,193.074432 83.806427,187.591614 88.213234,182.904419 
M105.887161,199.476334 
	C107.799477,198.577499 108.046455,197.111618 107.003441,195.486511 
	C106.077271,194.043427 104.495155,194.128174 103.034164,194.408859 
	C101.661568,194.672562 101.342155,195.761063 101.395943,197.005859 
	C101.505264,199.536240 103.227219,199.731537 105.887161,199.476334 
z"/>
<path fill="#000000" opacity="1.000000" stroke="none" 
	d="
M445.038513,215.967285 
	C447.474579,218.487854 445.139832,218.605545 443.526978,218.724014 
	C433.597961,219.453445 423.432922,208.879059 424.261047,198.764084 
	C425.524841,183.328064 440.832062,171.404343 456.398590,173.928238 
	C462.298370,174.884796 468.139832,176.249329 473.696136,178.589340 
	C477.435608,180.164185 478.554779,182.517258 475.873871,185.924469 
	C473.438507,189.019592 472.252472,192.608917 471.356140,196.362411 
	C470.524963,199.843170 469.065826,201.610992 465.590271,198.520325 
	C462.008545,195.335236 457.789978,195.794022 452.597198,196.718964 
	C456.690887,199.463623 460.616333,200.213257 464.286041,201.484924 
	C471.857666,204.108749 478.566223,207.513992 479.298157,216.743423 
	C480.152893,227.521317 476.419464,235.994324 466.528656,241.174988 
	C456.231873,246.568283 445.520813,244.743362 434.820740,242.890350 
	C434.331146,242.805557 433.862793,242.603836 433.375336,242.499939 
	C420.397827,239.733871 420.135010,239.223480 425.831665,227.789780 
	C426.954498,225.536148 427.856567,223.238922 427.714264,220.637619 
	C427.622253,218.955704 427.597961,217.151749 429.439819,216.308807 
	C431.321167,215.447784 432.521637,216.978470 433.845398,217.906891 
	C436.843048,220.009247 439.755341,222.284515 443.401062,223.181549 
	C445.997589,223.820419 448.630341,224.332550 450.604736,222.271286 
	C451.576477,220.311646 448.822510,219.651566 449.652069,217.898712 
	C452.005341,217.081100 453.517975,218.094513 454.229919,220.286057 
	C454.862518,222.233231 454.097198,223.888138 452.513062,225.132034 
	C449.823425,227.243958 446.829742,227.572205 443.545654,226.830978 
	C439.635620,225.948502 436.277710,223.691010 432.267303,222.173920 
	C429.981049,226.434982 428.056213,230.462570 427.402802,236.657028 
	C433.538055,232.470093 439.416199,234.120316 445.104736,233.614258 
	C446.372772,233.501434 447.727783,232.983978 448.797577,232.280151 
	C452.209045,230.035645 455.762939,228.600937 459.957367,228.496948 
	C463.436371,228.410706 465.832672,226.217209 465.305359,222.676163 
	C464.510162,217.336441 466.251923,213.260529 470.136017,210.032043 
	C469.709686,208.054337 468.496918,207.366730 466.604095,206.962860 
	C464.620056,210.755173 461.242981,211.926163 457.084198,211.241943 
	C454.739166,210.856155 452.870941,211.588959 451.358276,213.456192 
	C449.946533,215.198868 448.244232,216.490936 445.133728,215.779419 
	C441.152130,212.503632 440.650146,209.401505 444.221405,206.208572 
	C446.732391,203.963654 448.042145,201.260422 447.745453,197.821976 
	C447.441284,194.296768 449.605865,192.632187 452.641754,191.957535 
	C455.445648,191.334396 458.225433,191.740417 461.007721,192.541077 
	C462.616272,193.003952 464.321045,194.518616 466.208527,192.747940 
	C466.743103,190.437775 464.824341,188.841370 464.153412,186.882462 
	C463.380737,184.626541 465.262665,182.731171 464.522400,180.453491 
	C462.638763,180.095490 460.497253,178.302139 458.977051,180.287888 
	C455.995087,184.183060 451.723785,186.002365 447.736908,188.359573 
	C445.615479,189.613876 444.512329,191.570114 444.289764,194.108185 
	C443.842163,199.212402 440.625916,201.156860 435.839417,201.397095 
	C433.378357,201.520615 431.076447,200.705185 428.681213,200.166061 
	C428.509125,208.705826 434.394348,214.233749 445.038513,215.967285 
z"/>
<path fill="#000000" opacity="1.000000" stroke="none" 
	d="
M296.619141,285.057983 
	C297.171204,272.173218 302.513885,262.948456 312.686615,255.262466 
	C324.625824,246.241806 336.989838,247.123322 349.444336,251.305344 
	C367.438782,257.347626 373.140198,275.152039 369.947449,292.904449 
	C366.208435,313.694580 345.881561,321.985779 329.989441,322.719269 
	C314.959198,323.412964 300.850281,310.093872 297.258362,293.454926 
	C296.703888,290.886444 296.811676,288.174957 296.619141,285.057983 
M364.398590,299.758209 
	C370.419464,289.195343 367.904022,268.510162 352.768250,260.167267 
	C349.830658,258.548035 347.065674,258.991791 344.245636,260.548737 
	C331.341339,267.673218 330.706085,267.490601 324.017792,254.933517 
	C319.896210,257.254883 314.273590,256.636505 311.161957,261.938293 
	C315.788300,266.348450 317.305756,271.891846 315.994141,277.917938 
	C314.626404,284.201874 315.315338,290.115967 317.615875,295.996033 
	C319.131622,299.870178 320.460785,303.762787 320.419373,308.056549 
	C320.341431,316.136414 322.260498,317.712372 331.442566,317.068604 
	C330.346100,310.984009 333.873627,308.473267 339.296051,307.419037 
	C341.588196,306.973389 343.865509,305.919434 345.954834,307.605042 
	C348.353607,309.540283 346.278992,311.822632 345.767853,314.562042 
	C353.446045,311.178619 359.635315,306.980499 364.398590,299.758209 
z"/>
<path fill="#000000" opacity="1.000000" stroke="none" 
	d="
M400.241211,291.774353 
	C403.398682,288.961731 404.971527,290.954773 406.116150,293.798431 
	C408.414093,299.507477 410.403168,305.356293 413.636688,310.638611 
	C415.132294,313.081940 416.771912,315.471619 420.699005,314.515320 
	C419.976837,312.336243 419.121582,310.256592 418.604431,308.095978 
	C417.331451,302.777618 418.689636,298.311676 423.025635,294.743896 
	C430.797668,288.348816 431.077118,286.823669 426.680267,277.838928 
	C422.090027,268.458984 424.228241,263.567261 434.138062,260.777527 
	C435.668396,260.346741 435.668396,260.346710 437.223907,257.805817 
	C432.889801,256.968475 428.724030,256.115417 424.538788,255.371689 
	C421.653656,254.858978 420.413208,256.076508 420.080139,259.101837 
	C419.166077,267.404114 418.807861,275.669495 420.057343,283.963196 
	C420.279388,285.437103 420.358032,286.957031 420.285828,288.445129 
	C420.178253,290.661682 421.181763,293.579193 418.320129,294.576355 
	C415.248291,295.646790 414.492859,292.927368 413.583679,290.752106 
	C412.831543,288.952728 411.080109,289.520752 409.675659,289.238647 
	C405.748230,288.449707 403.780334,286.276062 403.607788,282.010101 
	C403.358978,275.857361 402.791992,269.739410 404.789825,263.165588 
	C410.242218,265.350006 410.785248,271.428101 414.338104,275.348297 
	C416.138763,269.585663 415.499847,263.805359 415.741364,258.106903 
	C416.049438,250.838303 417.965027,248.712540 425.087311,248.888184 
	C430.207458,249.014450 435.353058,249.611115 440.403290,250.484116 
	C443.275879,250.980682 443.281250,253.965118 443.214294,256.187683 
	C443.039307,261.998535 442.698059,267.815582 442.128082,273.601105 
	C440.789276,287.190857 440.196716,300.801025 440.316467,314.455048 
	C440.382263,321.956329 439.941986,322.028320 432.401459,321.419586 
	C427.107605,320.992218 421.754913,321.189758 416.431091,321.273041 
	C412.542389,321.333801 410.313416,319.925903 409.433258,315.839539 
	C407.991058,309.143524 405.624634,302.743195 401.269592,297.270874 
	C400.321960,296.080109 399.568176,294.792023 399.886536,292.634460 
	C400.019104,292.098907 400.241211,291.774353 400.241211,291.774353 
z"/>
<path fill="#000000" opacity="1.000000" stroke="none" 
	d="
M390.199463,196.774155 
	C390.036102,198.546967 389.496704,200.616547 388.107544,199.829605 
	C382.345490,196.565460 376.306976,197.745956 370.285400,197.969391 
	C369.330872,198.004822 368.363068,197.683228 367.405548,197.527359 
	C366.203033,204.186798 369.921570,211.346512 375.781189,213.867661 
	C377.613556,214.656052 379.561951,215.206070 381.322601,216.123581 
	C385.640106,218.373505 387.164124,222.535202 385.397949,227.089935 
	C384.922852,228.315170 384.080200,229.392685 383.503662,230.585098 
	C382.746002,232.152115 380.856934,233.414520 381.850433,235.490967 
	C382.356903,236.549606 383.426117,236.487061 384.473267,236.183014 
	C387.015228,235.444931 387.089783,233.370697 386.982635,231.355118 
	C386.585480,223.884094 387.316040,216.362671 385.980286,208.932617 
	C385.834198,208.120224 385.806580,207.273346 385.833405,206.445999 
	C385.879883,205.013016 386.326263,203.729889 387.979767,203.564056 
	C389.750092,203.386520 390.275085,204.697372 390.380707,206.105209 
	C390.617065,209.254333 390.811310,212.410446 390.886902,215.566956 
	C391.018524,221.060745 391.039337,226.557083 391.123596,232.052109 
	C391.156708,234.210739 391.129089,236.322235 392.806091,238.118073 
	C394.337158,239.757584 393.660492,241.519028 392.408752,243.073959 
	C391.185974,244.592880 389.569916,245.888214 387.678802,244.904236 
	C383.060089,242.501083 378.569122,244.348892 374.024689,244.865219 
	C372.703644,245.015305 371.389160,245.243973 370.064667,245.340088 
	C360.899139,246.005173 359.405823,244.333679 362.104950,235.566040 
	C364.223602,228.683853 363.840973,221.660660 363.414886,214.759003 
	C362.718170,203.474457 363.104858,192.108948 361.253326,180.904495 
	C360.649658,177.251801 361.925232,175.529099 365.735474,175.686234 
	C372.098358,175.948624 378.311340,175.235352 384.420532,173.203369 
	C388.388153,171.883743 389.526031,173.907394 389.346588,178.120743 
	C389.088745,184.174789 388.617279,190.345047 390.199463,196.774155 
z"/>
<path fill="#000000" opacity="1.000000" stroke="none" 
	d="
M297.110046,314.583008 
	C296.974365,320.034729 294.909454,321.970123 290.641754,320.403473 
	C286.720367,318.963898 283.085907,320.405701 279.328003,320.558105 
	C278.344513,320.597961 277.381592,321.003113 276.395386,321.142273 
	C265.448853,322.686890 263.942474,321.023987 266.416321,310.418518 
	C267.245972,306.861694 267.766754,303.264160 267.690491,299.555908 
	C267.399811,285.421814 267.007904,271.295990 265.172089,257.259918 
	C264.674500,253.455521 265.887390,251.529907 269.944183,251.678909 
	C276.302399,251.912445 282.564240,251.349380 288.596344,249.088043 
	C290.278809,248.457321 291.873169,248.757904 293.112274,250.228607 
	C294.283142,251.618286 293.127930,252.881317 293.086609,254.160461 
	C292.914093,259.498230 293.399780,264.864868 293.798462,270.209412 
	C293.943878,272.158905 294.827942,274.117432 292.741730,276.114014 
	C286.129883,271.750702 278.599335,274.517731 271.402740,273.725891 
	C269.667511,279.505829 273.533203,287.155670 279.577667,289.814697 
	C281.249695,290.550262 283.043945,291.021179 284.680939,291.820648 
	C289.712128,294.277679 291.324982,298.787415 288.995544,303.903290 
	C288.310669,305.407440 287.284546,306.752716 286.480164,308.206940 
	C285.769073,309.492432 284.592773,311.121368 286.566925,312.028442 
	C288.472656,312.904144 290.253357,312.019775 290.775940,309.859802 
	C291.120972,308.433868 291.096161,306.880493 291.016113,305.396088 
	C290.631409,298.261627 291.211151,291.082855 289.919189,283.983734 
	C289.599426,282.226898 289.472900,279.846741 292.023895,279.730469 
	C294.735657,279.606842 294.300781,282.115295 294.362122,283.824097 
	C294.654602,291.968140 294.862701,300.115356 295.077606,308.262054 
	C295.135162,310.443726 295.126678,312.622681 297.110046,314.583008 
M283.042145,256.412476 
	C282.897980,256.494690 282.703461,256.544556 282.623932,256.668304 
	C282.545441,256.790466 282.517395,257.098846 282.579468,257.135498 
	C286.001465,259.156555 286.999695,258.905914 287.883514,255.801086 
	C286.331482,255.030243 285.036987,256.393158 283.042145,256.412476 
z"/>
<path fill="#000000" opacity="1.000000" stroke="none" 
	d="
M399.924561,292.271301 
	C397.139130,297.267456 398.166779,302.515747 398.183136,307.620605 
	C398.214996,317.543884 396.192871,319.265015 386.218567,317.746490 
	C382.110382,317.121033 377.965912,316.708496 373.826477,316.321716 
	C370.471741,316.008270 368.935272,314.312439 369.649048,311.003235 
	C372.641876,297.126862 372.899170,282.963623 374.261078,268.913177 
	C374.745789,263.912598 374.562225,258.935547 374.709656,253.950882 
	C374.842560,249.456284 376.961426,247.688492 381.351074,248.023224 
	C386.159515,248.389877 390.987488,248.491348 395.802582,248.781448 
	C401.534027,249.126755 405.872192,253.489288 406.662109,259.890930 
	C403.417511,260.181274 402.682190,256.631805 399.911743,255.712250 
	C397.160156,257.927887 394.778961,260.354401 395.949738,264.656860 
	C397.790466,271.421173 396.715607,274.577606 392.003937,276.758911 
	C386.722809,279.203857 382.369019,277.650055 378.383209,271.564026 
	C378.012024,274.663269 377.629059,277.375305 377.384094,280.099731 
	C377.250458,281.586121 377.094910,283.406067 378.797852,284.035583 
	C386.956482,287.051544 386.946198,294.111206 387.329926,300.964233 
	C387.545868,304.820496 389.421967,307.393982 393.106323,309.319885 
	C395.070465,303.178680 394.911926,297.295471 394.285400,291.357544 
	C393.989380,288.552246 393.763092,285.727875 393.732941,282.909729 
	C393.706482,280.439209 394.814758,278.618866 397.613861,278.830322 
	C400.561707,279.052979 402.300690,280.804993 401.983490,283.778442 
	C401.721619,286.233002 400.861145,288.623688 400.253571,291.408508 
	C400.241211,291.774353 400.019104,292.098907 399.924561,292.271301 
z"/>
<path fill="#000000" opacity="1.000000" stroke="none" 
	d="
M167.980621,206.005173 
	C167.230255,203.649521 166.228455,201.337189 165.812759,198.923889 
	C165.505844,197.142120 166.096863,195.303711 168.245041,194.462860 
	C170.551178,196.013382 170.861221,198.609024 171.487930,200.911652 
	C172.722809,205.448715 175.182770,209.410538 177.035751,213.654144 
	C178.220352,216.367065 178.942902,219.097855 175.445663,220.883087 
	C173.855423,221.694855 173.491013,223.497299 172.533310,224.823929 
	C169.934906,228.423401 166.212173,229.099060 162.328247,227.962311 
	C158.818237,226.935013 157.620056,224.008713 158.136292,220.466003 
	C158.390701,218.719971 157.856873,217.178436 157.155655,215.671814 
	C155.862869,212.894028 155.507538,210.084152 157.945053,207.876831 
	C160.570023,205.499725 163.545929,203.577255 167.711395,206.204803 
	C167.823395,209.421112 167.511948,212.017212 167.349701,214.622604 
	C167.269836,215.905273 167.194504,217.569229 169.146622,217.405853 
	C171.002090,217.250595 171.427246,215.921097 171.106400,214.165344 
	C170.571472,211.238098 169.952271,208.370331 167.980621,206.005173 
z"/>
<path fill="#000000" opacity="1.000000" stroke="none" 
	d="
M410.155182,194.844330 
	C401.790527,195.883835 399.920868,193.570175 403.017670,186.087433 
	C404.487183,182.536652 406.166107,179.322113 404.947327,175.217178 
	C404.082611,172.304825 405.832275,170.043594 408.496429,168.783997 
	C412.062225,167.098083 415.824951,167.324219 419.042023,169.295898 
	C421.357391,170.714951 420.462921,173.563187 419.879883,175.758301 
	C418.042480,182.675644 416.232178,189.649597 410.155182,194.844330 
M410.833405,180.516113 
	C410.405701,178.165115 409.977997,175.814102 409.550293,173.463104 
	C407.913818,177.814987 412.754517,182.655060 407.017303,186.452591 
	C410.408081,185.768951 410.828064,183.653641 410.833405,180.516113 
z"/>
<path fill="#000000" opacity="1.000000" stroke="none" 
	d="
M349.807678,225.930710 
	C347.167328,227.846848 345.161774,227.171646 343.303406,225.312378 
	C341.345642,223.353760 339.565125,223.086929 337.393402,225.305618 
	C334.768524,227.987259 331.219818,228.486649 327.666962,227.951431 
	C324.178101,227.425858 322.813385,225.472336 324.675018,221.628174 
	C328.363007,223.587646 332.084595,225.017746 335.192902,221.067734 
	C335.997131,220.045746 335.679169,218.732986 334.609131,217.972397 
	C331.531555,215.784805 328.449402,215.933350 325.429962,218.650009 
	C323.149689,215.657333 322.643860,213.469315 326.723663,212.216064 
	C328.935028,211.536774 331.089172,210.594727 333.343811,210.148514 
	C338.269745,209.173599 342.978210,209.038757 345.867676,214.423492 
	C346.449951,215.508591 347.684113,216.339264 348.777191,217.037613 
	C352.557007,219.452499 353.030426,222.284485 349.807678,225.930710 
z"/>
<path fill="#000000" opacity="1.000000" stroke="none" 
	d="
M97.863083,216.361038 
	C97.676888,214.599854 97.682892,213.002502 99.279556,212.681274 
	C103.801743,211.771484 107.918182,209.094925 112.796707,209.701401 
	C115.423340,210.027924 117.707779,210.852875 119.059715,213.222839 
	C120.089394,215.027878 121.478561,216.296494 123.249588,217.359726 
	C126.441315,219.275879 126.957458,222.042770 124.750496,224.956253 
	C122.693298,227.672043 120.109276,228.074829 117.514793,225.505661 
	C115.403137,223.414612 113.606422,223.034973 111.217560,225.455017 
	C108.601341,228.105392 104.957062,228.564026 101.407875,227.929276 
	C97.844391,227.291977 96.794975,225.182022 98.527679,222.101532 
	C100.747871,221.079956 101.254005,223.451797 102.739799,223.579956 
	C105.216095,223.793549 107.396286,223.135162 109.048470,221.285553 
	C109.949509,220.276840 109.733940,219.003296 108.679733,218.188080 
	C106.766335,216.708466 104.598160,215.811279 102.185005,216.833710 
	C100.690498,217.466919 99.294914,219.852737 97.863083,216.361038 
z"/>
<path fill="#000000" opacity="1.000000" stroke="none" 
	d="
M344.981934,286.903870 
	C346.317017,282.643463 344.983734,279.409637 342.462799,276.469391 
	C341.197296,274.993439 339.091034,273.209137 341.409363,271.510590 
	C343.361847,270.080109 345.058960,272.137360 346.369476,273.630554 
	C347.232422,274.613800 347.893158,275.774567 348.759979,277.022125 
	C349.752014,276.746155 350.693665,276.525024 351.608734,276.223236 
	C359.794678,273.523376 364.942963,277.157318 365.194672,285.825989 
	C365.497437,296.252319 364.701538,296.057465 355.465607,300.130432 
	C348.055450,303.398193 341.902405,303.056580 335.374207,299.094696 
	C334.688721,298.678711 333.824127,298.511047 333.018463,298.347046 
	C324.436615,296.599945 322.500122,294.872375 321.758270,288.243469 
	C320.777740,279.481598 324.101715,271.617523 330.040009,268.862488 
	C332.998596,267.489899 335.914276,267.065887 339.601196,270.866882 
	C329.372589,270.945496 324.057739,275.036194 325.290222,284.843506 
	C325.829346,289.133484 327.731964,292.495575 332.208130,293.595215 
	C337.733032,294.952454 341.539093,292.953033 344.981934,286.903870 
z"/>
</svg>