<svg width="80" height="60" viewBox="0 0 80 60" fill="none" xmlns="http://www.w3.org/2000/svg">
<path d="M40 9.375C34.0666 9.375 28.2664 10.6946 23.3329 13.1669C18.3994 15.6393 14.5543 19.1533 12.2836 23.2646C10.013 27.376 9.4189 31.9 10.5765 36.2645C11.734 40.6291 14.5912 44.6382 18.7868 47.7849C22.9824 50.9316 28.3279 53.0745 34.1473 53.9427C39.9667 54.8108 45.9987 54.3653 51.4805 52.6623C56.9623 50.9593 61.6477 48.0754 64.9441 44.3753C68.2405 40.6752 70 36.3251 70 31.875C69.9909 25.9097 66.8273 20.1907 61.2032 15.9726C55.579 11.7545 47.9537 9.38182 40 9.375ZM40 50.625C35.0555 50.625 30.222 49.5253 26.1108 47.4651C21.9995 45.4048 18.7952 42.4764 16.903 39.0503C15.0108 35.6242 14.5158 31.8542 15.4804 28.2171C16.445 24.5799 18.826 21.239 22.3223 18.6167C25.8187 15.9945 30.2732 14.2087 35.1228 13.4853C39.9723 12.7618 44.9989 13.1331 49.5671 14.5523C54.1353 15.9714 58.0397 18.3746 60.7868 21.4581C63.5338 24.5415 65 28.1666 65 31.875C64.9926 36.8461 62.3563 41.612 57.6695 45.1271C52.9827 48.6422 46.6281 50.6194 40 50.625ZM54.2688 21.1734C54.5012 21.3476 54.6856 21.5544 54.8114 21.782C54.9372 22.0096 55.002 22.2536 55.002 22.5C55.002 22.7464 54.9372 22.9904 54.8114 23.218C54.6856 23.4456 54.5012 23.6524 54.2688 23.8266L41.7688 33.2016C41.5365 33.3758 41.2607 33.514 40.9573 33.6082C40.6538 33.7025 40.3285 33.751 40 33.751C39.6715 33.751 39.3463 33.7025 39.0428 33.6082C38.7393 33.514 38.4635 33.3758 38.2313 33.2016C37.999 33.0274 37.8147 32.8205 37.689 32.5929C37.5633 32.3653 37.4986 32.1214 37.4986 31.875C37.4986 31.6286 37.5633 31.3847 37.689 31.1571C37.8147 30.9295 37.999 30.7226 38.2313 30.5484L50.7313 21.1734C50.9634 20.9991 51.2392 20.8608 51.5427 20.7665C51.8462 20.6721 52.1715 20.6235 52.5 20.6235C52.8286 20.6235 53.1539 20.6721 53.4574 20.7665C53.7609 20.8608 54.0366 20.9991 54.2688 21.1734ZM30 3.75C30 3.25272 30.2634 2.77581 30.7322 2.42417C31.2011 2.07254 31.837 1.875 32.5 1.875H47.5C48.1631 1.875 48.7989 2.07254 49.2678 2.42417C49.7366 2.77581 50 3.25272 50 3.75C50 4.24728 49.7366 4.72419 49.2678 5.07583C48.7989 5.42746 48.1631 5.625 47.5 5.625H32.5C31.837 5.625 31.2011 5.42746 30.7322 5.07583C30.2634 4.72419 30 4.24728 30 3.75Z" fill="#1C1C1C"/>
</svg>
