<svg id="Layer_1" data-name="Layer 1" xmlns="http://www.w3.org/2000/svg" viewBox="0 0 595.28 841.89"><defs><style>.cls-1{fill:#4baebe;}.cls-2{fill:#46aebf;}.cls-3{fill:#4aaebf;}.cls-4{fill:#dce5e7;}.cls-5{fill:#47aebf;}</style></defs><path class="cls-1" d="M295.05,581.76l-12.55,2.78c-4.38,0-8.52,1.91-12.95,1.58-.64,0-1.33.68-2,1l-5.21.13c-4.1.05-8.22-.08-12.3.24-1.71.13-1.74-.39-1.88-1.72-.18-1.78,1.71-2.89,1.28-4.67.91-3.29,2.53-6.38,2.91-9.84a3,3,0,0,0,1.22-2.87c0-.42.05-.84.08-1.26,1.21-2.66,2.68-4.91,6.19-4.3.34,0,.76-.36,1.14-.55l2-.1.69,0,2.63-.14a5.8,5.8,0,0,0,5.39-1.19,6,6,0,0,0,3.34-.23c2.65,1.44,4.37-1.53,6.73-1.45l1.37-.05c1.85.92,3.18,0,4.4-1.26a3.75,3.75,0,0,0,2.4-.34c1,1.19,1.44-.12,2.11-.44,1.5.23,2.76-.58,4.13-.94,3.48-.91,6.71-2.86,10.49-2.49q-2.51,7-5,14a58,58,0,0,0-4.79,12.81A1.8,1.8,0,0,0,295.05,581.76Z"/><path class="cls-2" d="M160.81,158.94l18.84-4a10.22,10.22,0,0,0,6.06-1.23l2-.22c1.88,0,3.93.88,5.35-1.16a16.05,16.05,0,0,0,5.4-.21c4.29,0,8.66.93,12.77-1.09h2.7c.54.58,1,.51,1.37-.18l8.07,0c2.28,1.37,4.89.71,7.32,1.2l5.43.23a5.11,5.11,0,0,0,4.06,1.15l1.32,0a126.19,126.19,0,0,1,14.14,4.09,47.44,47.44,0,0,1,13.75,8.38l.93.77a.38.38,0,0,0,.14.43c0,.89.5,1.24,1.3,1.32v0c.61,1.35,1.18,2.72,2.65,3.4l.39,1.28c-.35.94.15,1.27,1,1.35l.34,1.33a83.49,83.49,0,0,1,5.1,17.12c.6,3.73.4,7.61,1.94,11.18a35.73,35.73,0,0,0,2.67,13.42,17.06,17.06,0,0,0,4.1,9.37c-.08,1.38,1.13,2,1.78,2.91.72,1.41,1.57,2.8.71,4.46l-1.12,0a.48.48,0,0,0-.84,0h-1.19a.48.48,0,0,0-.81,0l-2.59.18A78.71,78.71,0,0,0,269,237.8c-4.76.44-8.94,2.81-13.45,4.09-3,.84-5.52,3-8.83,2.61a12.16,12.16,0,0,1,.57-2.88,21,21,0,0,0,2.34-10.56c.91-4.7-1-8.77-2.92-12.81,0-.41-.14-.62-.57-.61h-.06c-1-2.31-2.09-4.46-4.56-5.51h0c-.29-.72-.37-1.68-1.57-1.35l-1.13-.64a6.24,6.24,0,0,0-6.11-2.22,2.67,2.67,0,0,0-2.23,0c-2.66-.18-5.45-1.17-7.74,1.15a2.78,2.78,0,0,0-2.11.31c-1.48-.57-2.19.52-3,1.38l-1,0c-1.43-.62-2.25.22-3,1.23l-1,.32-.73.51a28.65,28.65,0,0,0-9.34,4.08l-.69.65c-4.76,1.15-9,3.53-13.38,5.58-1.44-.28-2.49.82-3.58,1.32-3.77,1.72-7.88,2.77-11.21,5.4l-1.34.24c-2.37.37-4.68.88-6.37,2.81H164.9c-1.89-.54-3.16,1-4.78,1.43l-10.73,2.82c-1-.22-1.86-.09-2.08,1.16v0H134c-.87-.69-1.9-.45-2.89-.49-4.52-.2-9-.13-13.58-.58-4.18-.41-8.28-1.45-12.49-1.5l-7.36-1.4a.49.49,0,0,0-.84-.05l-1-.06a7,7,0,0,0-2-1.12,83.19,83.19,0,0,1-15.22-4.76c-4.06-1.59-8-3.54-11.94-5.33l-7.38-5.46a5.19,5.19,0,0,1,1-3.94c1.78-2.83,5.07-4.24,6.47-7.34l1.94-1.52c.31-.09.72-.09.92-.29,4.29-4.27,9.46-7.41,14.17-11.11,3.65-2.87,7.94-4.77,11.31-8a113.84,113.84,0,0,0,15.28-8.2c.57,0,1.15.12,1.45-.54h0l.73-.72,1.18-.23c1,.19,1.85.09,2.07-1.15l1.28-.26c1.06.25,1.62-.35,2.05-1.18l1.31-.26c6.17-2.31,12.44-4.4,18.48-7,3.29-1.42,7-1.75,10-4C153.12,161.91,156.69,159.31,160.81,158.94Z"/><path class="cls-2" d="M234.12,699.85c-2,.3-4.06.65-5.41,2.48-4.44,1.63-9.15,2.43-13.42,4.56-3.07-.2-6.11.85-8.72,1.82-3.16,1.17-6.8-.31-9.49,2.21-3.33.53-6.52,2-10,1.48-1.59-.48-1.33-1.82-1.35-3,0-2.64,0-5.27,0-7.91q1.76-7,3.52-14a7.73,7.73,0,0,0,2-5.15c.87-.52,2.09-.86,1.27-2.31l.09-1a1.67,1.67,0,0,0,1.18-1.66l.18-1c2.15-1.6,2.5-4,3-6.4l.12-.21a1,1,0,0,0,.89-1.12.18.18,0,0,0,0-.31c2.48-2.58,3.77-5.86,5.34-9h0l.52-.75a1.43,1.43,0,0,0,.12-.64c1.12-.25,1.37-1,1.34-2h0A43.34,43.34,0,0,0,212,646.5c.18-.26.36-.53.53-.8l12-14.13,4.18-4.66c1.86-1.72,4.43-2.7,5.47-5.27a1.79,1.79,0,0,0,1.43-1.29c2.71-1.2,4.63-3.38,6.63-5.45l10.1-7.37a12.65,12.65,0,0,0,5.2-3.47c.82,0,1.69.06,2.11-.89l.52-.44.82-.21c3.11-.75,6.16-1.6,8.22-4.34h1.14c1.94-.31,4.12.36,5.74-1.35l3.05-.13c4-.92,8.29-.86,12.12-2.7a8.94,8.94,0,0,0,6-1.36c3.08.28,5.86-1.12,8.63-2,2-.63,4.59-.07,6.2-2l5.33-1.48a3.18,3.18,0,0,0,2.81-.66,2.3,2.3,0,0,1,2.8-.28c.94.62.35,1.64.18,2.47-.66,3.27-1.57,6.5-2,9.8-.62,4.57-2,9-1.81,13.71,0,.56-.09,1.12-.13,1.68-.78.44-.86,1.19-1,2-1.15,6.79-1.68,13.7-4.73,20.09-.91,1.92-2.66,3.5-2.72,5.82a1,1,0,0,0-.12.55,10,10,0,0,0-3.36,4.77h0c-.45,0-.62.3-.62.72L294,661.89l0,0c-.79.08-1.36.38-1.34,1.3l0,0-.73.62,0,0a.63.63,0,0,0-.65.71l0,0c-1.09.37-2.29.61-2.55,2l-3.45,2.76c-1-.13-1.09.64-1.37,1.25h0c-2.41.52-3.7,2.5-5.3,4.08h-.05l-.82.5,0,0c-2.94,1.94-6.33,3.26-8.54,6.22l0,0A55.13,55.13,0,0,0,257,688.76h0c-1.78.5-3.59,1-4.65,2.71l0,0a38,38,0,0,0-10.8,5.32c-1.15,0-2.19.15-2.67,1.41l-1.28.23a1.58,1.58,0,0,0-2.06,1.11Z"/><path class="cls-2" d="M490.12,151.81c.92,2.6,3.2,3.59,5.45,4.61l0,0a1.17,1.17,0,0,0,1.32,1.32l0,0c.34,2,1.88,3,3.41,4l.89.71c-.15.38,0,.6.38.68h0a1.79,1.79,0,0,0,1.2,1.64c.07.34.14.68.2,1,2.5,6.09,4.43,12.23,3.63,19a16.42,16.42,0,0,0,.3,7.27c0,.42-.07.83-.11,1.25L501.27,213l-.21,1.34c-1.71,1.65-2.15,3.86-2.64,6.05l-.15.68-.55.66-.1.06c-.42,0-.59.15-.49.56q-2.79,5.72-5.56,11.42a6.41,6.41,0,0,0-1.12,1.22A46.93,46.93,0,0,1,478.69,249c-1.79,1.49-4.57,1.86-5.36,4.5-4.24,1.06-7.52,4-11.34,5.85-1.12-.26-1.42.79-2.06,1.29a.68.68,0,0,0-.63.11c-1.06-.22-1.64.43-2.18,1.17-2.19.44-4,1.76-5.88,2.77-2.83-.16-4.9,1.83-7.15,2.95-3.43,1.72-7.34,3-9.71,6.43-1.46.33-1.77,1.8-2.65,2.71-3.12,2.92-5.2,6.36-5.38,10.75h0c-.44.22-.38.49-.08.79,0,.8,0,1.59,0,2.39l-2.65.26-.33-.79c.17-.34,0-.43-.31-.41A133.07,133.07,0,0,0,404.3,272c-3-2.37-5.94-4.83-8.91-7.25-1.69-2.19-3.59-4.06-6.59-4.21-.18-1.18-1.11-1.25-2-1.35-.18-1.19-1.11-1.24-2-1.35a19.43,19.43,0,0,0-10.08-5.36c-1.56-2.09.66-3.08,1.32-4.53a1.44,1.44,0,0,0,1.34-1.35,4.55,4.55,0,0,0,2.71-4A2.13,2.13,0,0,0,382,240.5c1.13-.52,1.41-1.67,1.95-2.63,2.68-4.88,2.93-10.4,4-15.68,1.26-6.18,2.23-12.42,3-18.67,1-7.85,4.31-14.91,7.19-22.12,2.56-1,3.65-3.18,4.57-5.52h0a28.37,28.37,0,0,0,9.46-8.67l0,0a10.88,10.88,0,0,0,6.7-5.35l.05,0c3.32-.57,5.57-3.09,8.25-4.74,7-4.26,14.11-8.15,21.89-10.51,7.43-2.26,15-4.14,23-2.3,1.31.3,2.38,1.95,4,.87l1.35-.17.69.32C481.67,148.27,486,149.81,490.12,151.81Zm-5.49,61.82a15,15,0,0,0-2.48,4.07c-.35,0-.53.18-.36.55l-.12,2.07a2.5,2.5,0,0,0-1.24,1.9c-.16,1.59-1.13,3.65.53,4.62,1.82,1.08,2.86-.82,4-2a27.43,27.43,0,0,0,6.83-13c.43-1.88,2.19-4,0-5.29-2.48-1.39-3.52,1.49-4.92,2.91a5.08,5.08,0,0,0-.71,1.46.46.46,0,0,0-.12.42C485.26,211.9,484,212.16,484.63,213.63Zm-53.08-37.81c2.08-1.18,2.95-3.39,4.36-5.14,1-1.21,2.09-2.9.9-4.18-1.33-1.44-3-.44-4.38.67l-.74.62a26.47,26.47,0,0,0-11.47,12c-.37.78-1.33,1.64-.73,2.4a2.61,2.61,0,0,0,3.11.38C426,180.86,429.25,179,431.55,175.82Z"/><path class="cls-2" d="M50,599.49l-1.37.14c-1.8.2-2.35-1.38-3.33-2.33a.74.74,0,0,0-.05-.6c.4-2.83-.68-5.4-1.38-8,.24-6.34-2-12.5-1.36-18.87q0-6.36.07-12.72c1.88-2.19,1-4.86,1.33-7.34.36-3,.85-5.89,1.29-8.83-.08-3.6,1.94-6.9,1.51-10.56A92.91,92.91,0,0,0,50.2,516.2c1.19-.67.88-1.72.68-2.74a11.56,11.56,0,0,0,1.7-5.48c1.27-.28,1.32-1.06.83-2.05,0-.54,0-1.07,0-1.61.52-.41,1.34-.71,1.51-1.23,1.8-5.74,4.72-11,6.91-16.58,1.74-3,3.6-6,5.19-9.14,3-5.81,7.77-10.15,11.75-15.14.84,0,1.36-.39,1.4-1.29a126.14,126.14,0,0,1,16.7-9.41c3-1.39,6.21-2.59,8.84-4.76,1.08,0,2.35.31,2.6-1.34l.72-.14c1.08.3,1.6-.34,2-1.18l.68-.13c.91.19,1.38-.26,1.58-1.1l1.1-.32c4.61-1.62,4.6-1.62,4.66,3.69q.14,12,.29,24.1a16.67,16.67,0,0,0,1.11,7.46c-.49,4.11.85,8,1.45,12-.61,5.28,2.25,10.24,1.42,15.54q-1.4,5.37-2.8,10.74c-2.49,4.26-3.67,9.08-5.79,13.49L107.94,543a.8.8,0,0,0-.21.59c-2.56,2.42-4,5.54-5.41,8.68a5.44,5.44,0,0,0-3,4.24l-.22.11a3.23,3.23,0,0,0-2.17,3.09v0c-.74.19-1.27.56-1.27,1.41-.24.41-.48.82-.73,1.23l-.72.77a.37.37,0,0,0-.09.39c-2.93,1.52-4.42,4.27-5.95,7a40.08,40.08,0,0,0-8,8.18,19.13,19.13,0,0,0-6.29,5.85.5.5,0,0,0-.45.16c-.88,0-1.24.51-1.38,1.28h0c-1.88.1-2.89,1.41-3.85,2.78l-1.49,1.33a97.49,97.49,0,0,0-10.67,6.71l-1.4.19C53.1,597.77,50.92,597.5,50,599.49Z"/><path class="cls-2" d="M517.75,359.34a4.05,4.05,0,0,0,3.63,1.29c13.62-.8,22.34,7.19,30,16.9a53.46,53.46,0,0,1,8.31,14.79c.12.32.68.48,1,.71.1.43.19.86.29,1.28a1.61,1.61,0,0,0,1.18,2c.07.44.15.88.23,1.32-.35,1.07.25,1.64,1.12,2l.21,1.32a2.46,2.46,0,0,0,1.23,2.68l.22,1.32c.94,2.38.82,5.17,2.78,7.15-.39,2.53,1.12,4.66,1.5,7q1.65,7.8,3.29,15.59c.11,1.77-.58,3.66.76,5.25,0,7.43,2.07,14.71,1.49,22.18-.06.79.48,1.19,1.15,1.43l.12,9.31v13.5c0,1.78,0,3.56-.08,5.34-.57.54-1.29,1-1.2,1.91.76,7.52-1.55,14.84-1.45,22.31-.1,3.62-2.07,7-1.46,10.71-1.77,1.87-1.45,4.42-1.92,6.62-.69,3.19-2.12,6.23-2.08,9.56,0,.57-.07,1.14-.11,1.7-.91.45-1.08,1.34-1.35,2.19C563,558,558.74,569,552.73,579.22l-.27.75-2.54.13c-.34-1.85-1.85-2-3.27-2.17a.45.45,0,0,0-.39-.25,58.09,58.09,0,0,0-9-8.48,4.4,4.4,0,0,0-2.6-2.87c0-1.36-1.44-1.64-1.87-2.67l-.83-.67,0,0a5,5,0,0,0-2.8-3.93l-.44-.8c-1-2.34-1.88-4.71-4.05-6.26l-5.58-10.46c-.41-1.85-1.66-3.31-2.39-5-.8-1.86-1.09-4-2.92-5.24.36-1.59-.73-2.66-1.4-3.88,0-1.3.13-2.64-1.38-3.31l0-.06a14,14,0,0,0-2.78-8l-.15-1.39c.33-1.39.18-2.6-1.25-3.33-.08-.66-.16-1.32-.23-2a2.85,2.85,0,0,0-1.08-3.41c-.09-.72-.19-1.45-.28-2.18a16.51,16.51,0,0,0,.14-3c-.9-7.68-.35-15.35-.15-23,.17-6.58,1.4-13,1.44-19.62l.18-4c.61-.32,1.25-.74,1.21-1.46-.34-6.75,2.52-13.27,1.46-20.07l.15-2a1.44,1.44,0,0,0,1.2-1.4c.35-6.7-.42-13.26-3.52-19.28-3.25-6.33-14.24-11.34-21.08-9.88-.35.08-.61.58-.92.89-3.62-.43-6.6,1.44-9.48,3.07-1.62.92-4.08,1.24-4.54,3.72l-.64.61-1.24.3c-.57.25-1.27.34-1.44,1.1h0c-.73.15-1.34.45-1.37,1.33h0c-1.17.45-2.46,1.46-3-.71a4.35,4.35,0,0,0,.1-2.67c1.89-2.81.51-6,1.07-9.05,1.13-6.1,0-12.25-1.06-18.33,0-.45-.07-.9-.1-1.35.19-3.37.74-6.79-1.53-9.78v-1c.64-2.12.64-4.11-1.29-5.65,0-.59-.07-1.18-.1-1.77.37-1.47,1-2.09,2.72-1.54,1.33.41,2.34,1.87,4,1.32,2,.59,3.71,2.11,6,1.56,4.3,2.47,9,1.16,13.49,1.29,2.35.46,4.51-.49,6.75-.86,1.14,1.42,1.88.4,2.65-.44l2-.11a71.72,71.72,0,0,1,16-1.4c.76,0,1.1-.65,1.46-1.21Z"/><path class="cls-3" d="M242.22,254.92c3-1,6-1.88,8.7-3.63l1-.65A3.1,3.1,0,0,1,254,252a57.14,57.14,0,0,0,6.72,9.56c.68,2.07,2.2,3.67,3.16,5.57,1.18,2.35,3.85,3.88,3.74,6.91-4.24,1-8.4,2.18-12.08,4.63a5.15,5.15,0,0,0-1.65.21c-7.78,3.77-15.47,7.71-22.48,12.84l-.58.53-1.64.58-.06-.11.07.1c-.62.69-1.24,1.39-1.87,2.08-2,.8-3.75,1.07-5.23-1-3.33-4.72-7.71-8.51-11.54-12.78-2.17-2.42-3.81-4.32-.41-6.82a.4.4,0,0,0,.39-.14,1.57,1.57,0,0,0,1.61-1.27c1-.91,2.73-1,3.24-2.57,4.46-1.69,7.94-5.06,12.2-7.16C232.63,260.67,237.37,257.68,242.22,254.92Z"/><path class="cls-1" d="M283.28,242.55c4.32.49,8.36-1.56,12.64-1.46l14.16-.06,3.24.15c1.13,3.2,0,6.29-.44,9.43-.55,4.26-2.52,8.29-2.15,12.71h0a4.52,4.52,0,0,0-1.19,4.08l-.3,1.19c-4.45-.62-8.89,0-13.34.15l-3.32.16h-2c-1.72-.24-3.41-.37-4.72,1.13l-3.27.26c-4.29,1.44-7.1-.23-8.82-4.19-.07-.15-.38-.19-.58-.28-.11-2.81-2.45-4.49-3.46-6.87-1.72-4.07-4.79-7.47-6-11.8,1.72-.92,3.85-.58,5.47-1.8,4.42,0,8.53-2.21,13-1.76C282.78,243.67,283.06,243.07,283.28,242.55Z"/><path class="cls-1" d="M389.93,267.43c2.18,3.21,5.78,4.7,8.66,7,8.65,7,17.05,14.29,23.9,23.18.57.74,1.12,1.35.94,2.33-2,1.18-4.2,2-5.85,3.67a61.92,61.92,0,0,0-13.47,8c-2.72,2-4.56.92-6.54-1.39a82.81,82.81,0,0,0-6.88-6.48c-1.1-.92-1.61-2.53-3.26-2.81a36,36,0,0,0-10.12-8.08v0a.64.64,0,0,0-.75-.57l-.06,0-.61-.63a8,8,0,0,0-3.88-2.15c.07-.85-.31-1.68.43-2.51A218.45,218.45,0,0,0,386,269.35C387,268,388.18,267.14,389.93,267.43Z"/><path class="cls-3" d="M131.32,489.17c0-.9,0-1.8-.08-2.7-.45-2.09.8-4.5-1.17-6.31l-.16-2.42c.15-3.07.29-6.14-1.25-9,0-1.88,0-3.75,0-5.63.31-.31.47-.62,0-.93v0c0-1.93,0-3.86.05-5.79a.65.65,0,0,0,0-1.09c0-1.66,0-3.31,0-5l.75-.79c1.88-1.74,4.93-.59,6.65-2.7l1.89-.19c2.43-.34,4.89-.65,6.73-2.56h0l.67-.13,1.28-.11a3.12,3.12,0,0,0,2.2-.41c2.92-1.36,3.35-1.05,3.43,2.16,0,1.08-.32,2.21.37,3.22a.88.88,0,0,0,0,.62v9.41c.05,3.6,1,7.11.9,10.74-.07,2.93-.41,6,1.45,8.67l.3,3.44c-.65,1.16-.7,2.16.75,2.74,0,1.39-.43,2.83.5,4.1.12,1.1-.06,2.36.42,3.28,1.58,3.05.08,4.6-2.33,6.17-2.11,1.38-4.48,2.45-6.12,4.49a.49.49,0,0,0-.49.12l-10.76,6.81h-1.38l-.47-1.43a3.42,3.42,0,0,0-1.33-3.71c0-.58-.07-1.16-.11-1.74a.74.74,0,0,0,0-.6,3.34,3.34,0,0,0-1.33-3.73c0-.78,0-1.56-.05-2.33,0-2,.35-4.08-1.3-5.7Z"/><path class="cls-1" d="M136.65,437.17c-1.23-.52-2.08.44-3.1.76-3.49,1.13-5.06-.15-4.16-3.68a29.2,29.2,0,0,0,.55-8.27l.12-4c1.93-4.52,1.12-9.54,2.56-14.15a1.63,1.63,0,0,0,.07-2.06,5.15,5.15,0,0,0,.06-2.91c1.67-1.14,1.84-2.72,1.31-4.5l0-2.28a2.56,2.56,0,0,0,1.74-2.54,2.32,2.32,0,0,1,2.4-2.31c3.82.11,7.32-1.67,11.09-1.73,3.65-1.73,8-.4,11.54-2.47,1.35,1.06,1.73,2.44.77,3.82s-.8,2.73-.87,4.16a2.36,2.36,0,0,0-1.13,2.79c-.8,3-2,5.92-1.6,9.11A38.44,38.44,0,0,0,155.26,422l-.39,2.66c-1.07,1.68-1.66,3.42-.81,5.38l-.63,2.66a2,2,0,0,0-2,1.36l-3.28.36c-1-.41-1.61.2-2.09,1l-4.69.66a1.2,1.2,0,0,0-1.35.7Z"/><path class="cls-1" d="M326.22,574.64c-4.57.82-8.52,3.47-13,4.48-1.3.28-2.56.73-3.83,1.11-1.68-.62-1.14-1.63-.74-2.91,2.16-6.94,5.37-13.56,6.38-20.85a10.8,10.8,0,0,1,8.23-6.9,1.41,1.41,0,0,0,1.07-1.15,3.14,3.14,0,0,0,2.58-1.07,1.13,1.13,0,0,0,1.28-.4l.67-.12c4-1.32,7.92-2.84,11.13-5.72,1.33.14,1.88-1.27,3-1.51,1.43.82,1.21-.66,1.67-1.2a8.16,8.16,0,0,0,5.06-2.85c1.08.14,1.35-.94,2-1.37h.3l.27-.15c1.24.16,1.61.79,2,2.08.81,2.5.41,5,.9,7.5,0,.88.09,1.75.13,2.63a20.15,20.15,0,0,0,1.15,10.14l-.12,4c-2,.87-4.19,1.32-5.43,3.36l0,0c-1.49-.32-2.4,1-3.5,1.5-3.56,1.68-7.47,2.7-10.6,5.25h0C333.11,571.26,329.75,573.17,326.22,574.64Z"/><path class="cls-4" d="M266.31,564.79c.31-1.53,2.19-.55,2.74-1.71.89.1,1.89-.29,2.65.52A5.83,5.83,0,0,1,266.31,564.79Z"/><path class="cls-1" d="M454.64,398.23c.15.15.29.44.46.45,3.5.29,4.69,2.18,4.16,5.57a21.59,21.59,0,0,0,.16,4.31v2.66c-.62.29-1.29.74-1.23,1.43.4,4.78-1.19,9.34-1.43,14.05-.07,1.31-.14,2.62-.22,3.93-2.28,2.68-.86,6.43-2.67,9.24-1.71,2.65.05,6.95-4,8.45l-1.94-.17c-.14-.79-.49-1.33-1.41-1.21-4.91-1.74-9.46-4.39-14.56-5.66a2.09,2.09,0,0,0-1.7-1.42c-2.92-.58-2.69-2.36-1.83-4.44h0c.86-.49.65-1.28.55-2,.65-2.4,1.89-4.68,1.49-7.3,1.92-3.48,2.1-7.43,2.43-11.18.53-5.86.23-11.79.28-17.69l6-.68h3.7a8,8,0,0,0,7.08,1.37A12.89,12.89,0,0,0,454.64,398.23Z"/><path class="cls-1" d="M440.42,388.45l-7.2-.17q-1.5-8.71-3-17.41c.15-2.69-1.11-5.08-1.88-7.52-1.13-3.55-1.08-3.92,2.77-4,2.07-.07,4.17,0,6-1.29l6.69-.3a40.37,40.37,0,0,1,5.25-.35c1.53.09,3.31-1.63,4.39-.14a10.47,10.47,0,0,1,1.72,5.26,19.74,19.74,0,0,0,1.54,5.73c0,.64.06,1.29.08,1.93a7.24,7.24,0,0,0,1.23,5.43c.06.87.11,1.75.17,2.62.14,2.31-1.22,4.89,1.23,6.78,0,1.12,0,2.25,0,3.38a1.34,1.34,0,0,0-1.5,1.28l-1.26,0c-.19-1-.88-1.11-1.72-1.11Z"/><path class="cls-3" d="M320.46,259.28c.08-.69.17-1.37.25-2.06,1.92-2.33,1.62-5.36,2.51-8l.15-2.06.05-.08c1.26-3.55,3.58-4.66,7.17-3.35a9.25,9.25,0,0,0,3,.06c1.7,0,2.87,1.9,4.73,1.31,2.75.72,5.49,1.47,8.25,2.17,5.09,1.29,9.75,3.92,15,4.86.56,1.92,2.51,1.58,3.8,2.27,4,2.07,8,4,12,6l1.29.26c1.86,3.21-2,4.36-2.42,6.76-1.52,2.14-3.21,4.16-4.17,6.65-2.35,2.49-3.76,5.62-5.59,8.46a2.89,2.89,0,0,1-2.61,1.71c-3.63-2.1-7.21-4.31-11.29-5.5-.37-.38-.68-.94-1.13-1.12A172.94,172.94,0,0,0,321.57,269c-2.63-.53-3.14-1.44-2.69-3.66,0-.59.06-1.17.08-1.76A4.44,4.44,0,0,0,320.46,259.28Z"/><path class="cls-1" d="M435.07,314.38a.56.56,0,0,0,.46.13c3.68,7.24,7.25,14.53,11.08,21.69,1.16,2.15,1.22,4.83,3.19,6.56,1.18,3.16.58,5.23-3.26,5.3-5.57-.1-10.76,1.93-16.16,2.78l-1.37,0c-1.48-.39-2.75.3-4.07.76l-1.65-2.24c.3-.88-.05-1.36-.93-1.5-2.09-7.15-6.37-13.14-10.23-19.35-1.45-2.17-2.75-4.46-4.39-6.47s-1.22-3.35,1.13-4.23c1.91-.72,4-1.15,5.06-3.25,1.59.37,2.6-.64,3.66-1.54,3.58-.78,6.5-3,9.73-4.54a10.65,10.65,0,0,1,3.08-.88c1.87,1.7,2.62,4.18,4.16,6.11C434.52,314.11,434.63,314.38,435.07,314.38Z"/><path class="cls-5" d="M273.13,278.13l2.64-.05c1.45,1.08,2.37.07,3.32-.83l2.65-.22c1.47.19,2.82-.4,4.21-.71,2.56-.56,4.29-.46,5.8,2.58,1.41,2.82,2.06,6.33,5,8.31l.11.21c-.39,1.44.4,2.1,1.64,2.46l.05,1c-.82,1.49.58,1.69,1.33,2.26a.44.44,0,0,0,.07.45,2.11,2.11,0,0,0,1.27,2.24.42.42,0,0,0,.07.45,1.91,1.91,0,0,0,1.31,2.15.65.65,0,0,0,.07.53c-.1,1,.16,1.82,1.27,2.1l0-.05c.16.51.28,1,.48,1.51,1.33,3.21,4.17,5.87,3.54,9.78-.66.27-1.3.56-1.13,1.48l-.11.73c-3.17,4.24-5,9.11-6.77,14l-.16,1.07c-2.43,2-3.3,4.87-4.14,7.74l-.2,1.33c-1.53.16-1.78,1.53-2.43,2.53-3.66.37-7.29.9-10.6,2.69-4.67.07-9,1.48-13.43,2.88-2.43-.5-4.33,1.54-6.68,1.39-1.48-.08-3-.35-4,1.24l-2,.17c-1.81-.34-3.91.82-5.43-.8-2.69-2.9-5.52-5.66-8.22-8.55-4-4.28-7.57-9-12.45-12.44a.57.57,0,0,0-.27-.56,80.77,80.77,0,0,0-12.49-12.85c-1.41-2.08-1.1-3.7,1-5.28,3.08-2.34,6-4.93,8.95-7.42.74-.84,2.49-.43,2.57-2.08,8.12-5.09,16.09-10.44,24.95-14.24,5.3-2.06,10.47-4.52,16.17-5.36A2.3,2.3,0,0,0,273.13,278.13Z"/><path class="cls-1" d="M201.82,285.49l2.05,2,4.56,4.75.82.57v0a.68.68,0,0,0,.65.74c1.48,1.64,2.66,3.6,4.76,4.6.42,1.62,2.08,1.87,3.11,2.81l.06,1a2.22,2.22,0,0,0-1.32,1.58,1.24,1.24,0,0,0-1.29,1.26,33.72,33.72,0,0,0-10,9.53c-.71.18-1.35.43-1.33,1.34a59.35,59.35,0,0,0-10.78,12.76h0a.59.59,0,0,0-.53.73l-.08.15-.57.53c-.84.69-1.58,1.6-2.84,1.51l-.67,0-1.36-.11a8.22,8.22,0,0,0-4.69-1.18l-2.69-.2c-3.62-1.77-7.57-2-11.46-2.54l-3.29-.2a5.45,5.45,0,0,1,1.57-5.11,11.88,11.88,0,0,0,2.48-4.14c.66-.28,1.28-.6,1.21-1.47a.61.61,0,0,0,.16-.5c.73-.25,1.28-.65,1.25-1.53h0l.47-.67a.85.85,0,0,0,.34-.41l.68-.88a.36.36,0,0,0,.07-.38A60.27,60.27,0,0,0,182.35,301h0a.61.61,0,0,0,.63-.7c1.76-2,4.12-3.55,5.41-6l7.5-7.34C197.8,286.13,199,282.48,201.82,285.49Z"/><path class="cls-1" d="M324.91,277.05l3.3.28c.93,1.74,2.52,1.37,4,1.27l1.36.08c1.1,2.32,3.59,1.47,5.32,2,3.62,1.09,6.91,3.26,10.8,3.47h0a1.42,1.42,0,0,0,1.3,1.38l0,0c-.81,2.69-2.93,4.53-4.45,6.76-1.72,2.53-3.64,4.84-6.93,5.69-5,1.3-9.9,2.94-14.84,4.43-2.12.81-4.4,1.05-6.47,2.16s-4.28.3-4.6-2c-.48-3.46-2.05-6.53-3.3-9.61-.81-2-.18-4.71-2.41-6.14.3-2.2-1.7-3.79-1.58-5.94a2.11,2.11,0,0,0-1.18-2.69l-.09-.67c0-1.77,1-2.12,2.6-2.14C313.59,275.29,319.22,276.43,324.91,277.05Z"/><path class="cls-3" d="M142.6,529.48c.36-1.9-.92-3.54-1.65-4.84-1.84-3.3-.84-5.13,1.92-6.81a9.13,9.13,0,0,0,1.17-1.08c1.37-1.13,3.33-1.51,4.17-3.31a46.2,46.2,0,0,0,9.23-6.92c.92.15,1.27-.43,1.48-1.18l1.9-.09c-.19,1.65.91,2.95,1.52,4.26,1.31,2.84,1.33,6.3,3.87,8.58a34,34,0,0,0,4.26,8.73c-.17,1-.12,1.81,1.18,1.85.12.75.28,1.47,1.26,1.51a3.37,3.37,0,0,0,1.93,2.93A24,24,0,0,0,183,543a14.4,14.4,0,0,0,5.45,5.31c2.49,2.34,5,4.62,8.45,5.53.7,1.79,0,3.06-1.14,4.52-3,3.94-6.44,7.55-9.13,11.75-1.28,2-2.7,4.19-4.61,5.42-2.61,1.67-4.08-1.87-6.35-2.34a3.7,3.7,0,0,0-.67,0,5.44,5.44,0,0,0-3.28-2.68l-10.8-10.75a4.17,4.17,0,0,0-2.71-3.34,141.65,141.65,0,0,1-9.78-15.26C146.42,537.26,144.53,533.36,142.6,529.48Z"/><path class="cls-1" d="M245.55,569.85c-2,2.88-2.74,6.32-3.92,9.54-1.07,2.93-3.32,5.49-3,8.89a1.66,1.66,0,0,0-1.27,1.61l0,0-4,.16a84.49,84.49,0,0,1-18.1-1.38c-4.46-.92-8.75-2.65-13.37-2.83-2.86-1.79-6.09-2.59-9.28-3.48a1.21,1.21,0,0,0-1.25-.54l-.34-2.58c2.32-2.13,3.67-5,5.42-7.48.35,0,.51-.18.33-.53l.26-.74c2.18-2.2,3.61-4.94,5.32-7.46,2-3.57,4.74-4.92,8.6-2.6.51.31,1.3.13,2,.18,5.62,2.83,11.72,3.59,17.85,4.19a31.65,31.65,0,0,0,7.34.32,4.47,4.47,0,0,0,4.21,1.24C245.24,565.89,246,567.28,245.55,569.85Z"/><path class="cls-5" d="M325.37,542.86l-.74.37-.85.8h0l-.09,0c-.52-1.36-.82-.28-1.17.12l-1,.16a1.94,1.94,0,0,0-2.19,1.21l-.25,0-.23.08a3.72,3.72,0,0,0-3.38,1.37h0c-1.18-.09-2.3,0-2.85,1.28-1.48,0-3-.07-4,1.37-3.76.19-7,2.29-10.64,2.88-1-.16-1.84,0-2,1.18l0,0c-1.86.06-3.7-.17-5.46.94-1.21.76-2.41.46-3.32-1.06-1.37-2.3-3.07-4.43-4.62-6.63a12.39,12.39,0,0,0-2.65-4,137.42,137.42,0,0,0-9-14q1.1-5.42,2.2-10.84c.08-.07.23-.14.22-.19a3.16,3.16,0,0,0-.17-.52l0-1.25,0,0a7,7,0,0,0,1.37-6.16l0-1c1.86-1,1-2.83,1.33-4.32a.19.19,0,0,0,0-.31c1.53-.62,3.45-.25,4.58-1.85l1.32-.12a48.37,48.37,0,0,0,15.05-4.2l1.1-.11c1.66.82,2.73-.11,3.71-1.26l1-.1a2.92,2.92,0,0,0,3.63-1.31l1.76-.14a4.7,4.7,0,0,0,2.59-.34c3-1.28,5.53-1.4,7.83,1.62a14.09,14.09,0,0,0,5,4.29l1.18,1.27,12.29,11.46,3.24,2.63a53.62,53.62,0,0,0,8.32,7.9c.73,1.63,4.08,1.84,2.56,4.7a1.41,1.41,0,0,0-1.4,1.37c-3.16.44-5.21,3-7.92,4.25-1-.18-1.79.07-2,1.23h0A105.94,105.94,0,0,0,325.37,542.86Z"/><path class="cls-1" d="M266.37,559.14c-3.55.19-7.12-.27-10.66.36a103,103,0,0,0-13.61-.07l-8.17-.28c-1.34-2.24-3.43-1-5.22-1.11l-1.32-.33c-.11-.7.2-1.54-.64-2,3-4.53,4.07-9.93,5.58-15,1.32-4.39,3.85-5,7.27-5,5.56-.14,11.12-.12,16.68-.17H259l2.6.21c.52,1,.56,2.41,2,2.75l1.42,2.45c-.09,1,.22,1.79,1.37,2l0,.06a110.57,110.57,0,0,0,8.29,13.36l-.18,1.47-1.37.29C270.86,558.27,268.29,556.63,266.37,559.14Z"/><path class="cls-5" d="M160.52,420.54l.24-3.47c2.15-1.58,1.21-3.84,1.29-5.87l.13-2c1.51-.42,1.09-1.74,1.22-2.76.39-2.82,1.38-3.3,4.19-2.28,2.42.88,4.59,2.57,7.35,2.38.44,1.43,1.58,1.31,2.7,1.24l1.27.11c2.24,2.36,5.54,2.34,8.29,3.57a59.38,59.38,0,0,0,13.7,4.72,43.75,43.75,0,0,0,14.44,5.6,1.12,1.12,0,0,0,.63.18c.11,1.15,1.1,1.28,1.89,1.65v4.11c-.29.31-.86.63-.85.94.1,5.17-1.53,10.28-.48,15.47,0,1.57,0,3.14,0,4.71-.61,3.47-.06,6.95,0,10.43-1.79,1.14-1,2.89-1,4.43a.56.56,0,0,0-.24.5L214,465a117,117,0,0,0-13.5,7.4c-.4.85-1.34.51-2,.88l-6.12-.07-2-.09a2.37,2.37,0,0,0-1.89-1.21c-2.81,0-5.48-1.13-8.16-1.26-3.06-.14-5.72-2-8.78-1.5-3.41.07-6.49-2.06-10-1.54-2.17-1.32-2.38-3.34-2.29-5.66.19-4.56-.74-9.07-.73-13.65,0-5.66,1.45-11.26.66-16.95,0-1.59.1-3.18.16-4.78C161.5,424.86,160.6,422.62,160.52,420.54Z"/><path class="cls-3" d="M160.84,482.43c-.06-1.33-.11-2.65-.17-4-.32-3.52,2.38-2.53,4.22-2.82l7.76.23a2.14,2.14,0,0,0,1.9,1.15c5.34.46,10.66,1,16,1.4,4.07.28,4.53.63,4.66,4.78.06,1.9-.22,3.87.19,5.69.63,2.86-.53,6,1.54,8.62.05,1.7.09,3.41.14,5.11l-.8,4c-3.29.95-6.69,1.67-9.42,4-3.45-.2-6,2.36-9.18,3-1-.24-1.61.32-2,1.16l-.65.15c-2.54.23-4.27-.22-5-3.29s-2.48-6-3.77-9c-.2-4-2.74-7.37-2.84-11.38-.25-2.62-1.64-5-1.37-7.77C162.06,482.81,161.39,482.58,160.84,482.43Z"/><path class="cls-2" d="M199.78,328.42c1.16.05,1.43-1,1.84-1.67a4.27,4.27,0,0,1,4.95-2.32c.32,1.34,1.38,1.45,2.48,1.48.11.89.54,1.39,1.49,1.31h0c4,4,8.79,7,13.28,10.42,1.13.86,2.39,1.54,3.59,2.3.5,1.67,2.09,1.92,3.37,2.58a77.56,77.56,0,0,0,11.37,8.2c2.34,2.09,4.52,4.38,7.47,5.67l.74.34.57.64,3,2.67a19.58,19.58,0,0,0,.05,6.87l-.15,1.92c-1,4.23-1.87,8.47-1.3,12.86l-.18,2.63c-1.24,1.49-1.09,3.31-1.24,5.08-.36,4.11.27,8.27-.7,12.35-.37,1.58-.86,2.86-2.59,3.56-4,1.63-8.05,3.36-12,5.27-2.81,1.37-6,1.9-8.41,4.15l-1.29.32c-1-.43-1.27.2-1.41,1l-1.29.27c-1.15-.41-1.65.3-2,1.21l-2.51.16a87.78,87.78,0,0,0-17.11-8.44,1,1,0,0,0-.56-.11,1.57,1.57,0,0,0-2.08-1.16l-.72-.12a37.57,37.57,0,0,0-10.09-5.29c-2.14-1-4-2.6-6.45-2.93a2.21,2.21,0,0,0-2.24-1.26l-1-.14a1.85,1.85,0,0,0-1.68-1.18l-1.08-.25c-.89-1.79-2.76-1.82-4.32-2.4-.31-.55-.84-.54-1.36-.53-.74-1.53-3.44-1.78-2.78-4.23,0-2.09,2-3.64,1.57-5.83,2.88-5.2,4.57-10.87,6.64-16.39.12-.47.24-.94.37-1.4,3.28-3.69,4.6-8.44,6.85-12.68a171.38,171.38,0,0,1,14.69-21.79,11.2,11.2,0,0,0,.92-1.71,1.16,1.16,0,0,0,1.26-1.38Z"/><path class="cls-1" d="M172.91,337.2c2.74,1.87,5.91,1.17,8.9,1.4,1.49.11,2.59.31,2.7,2a71,71,0,0,0-8.33,14.07,10.33,10.33,0,0,0-2.64,4.71l-.46,1.4a1.41,1.41,0,0,0-.84,1.29h0c-.39.08-.53.3-.4.68l-.22,1.44c-.92.35-1.45.92-1.15,2l-.24,1.28c-1.22.15-1.09,1.15-1.33,2-2.46,8.72-3.15,9.23-12.13,9.45-1.28,0-2.75-.31-3.56,1.2l-5.16.12c-1.91.28-4.1-.68-5.65,1.23l-.84,0c-2.33-1.17-1.68-2.91-1.11-4.82.83-2.8,2.57-5.36,2.28-8.45l0,0,.78-.66c2.19-4.45,3.42-9.28,5.5-13.82,1.61-3.53,4.23-6.73,4.59-10.82,1.21-.31,2-.88,1.54-2.32l.32-.68a1.48,1.48,0,0,0,1.08-2l.36-1.09a2.14,2.14,0,0,0,1.62-1.49l2.26.11,2.34,0c.34.81.5,1.89,1.84,1.25A34.78,34.78,0,0,0,172.91,337.2Z"/><path class="cls-1" d="M363.8,545.6c0-.87-.07-1.74-.11-2.61.72-5.28-2.31-10.24-1.31-15.55l.06-.05a1.21,1.21,0,0,0,1.36-1.27h0c4.89-2.56,8.94-6.22,12.88-10l.62-.61c4.79-3.48,8.56-8,12.63-12.24l.76-.78c.43.07.57-.15.56-.54a1,1,0,0,0,.16-.62c2.1-2,3.9-1.87,5.43.71.19.31.7.44,1.06.65a22.79,22.79,0,0,0,5.63,8,12.57,12.57,0,0,0,4.36,5.52c2.15,2.55.86,4.35-1.16,6.24s-4,4.35-6.31,6.26c-3.29,2.73-6.44,5.64-9.65,8.48a24,24,0,0,0-7,5.69A32.86,32.86,0,0,0,378,547c-.42,0-.67.21-.68.66h0c-2.75,1.15-4.9,3.24-7.39,4.79l-.73.56,0,0-.77.69a.61.61,0,0,0-.53.16c-1.91.14-2.74-.63-2.76-2.66S365.61,547.12,363.8,545.6Z"/><path class="cls-3" d="M423.76,448.88c1.32-2.45,3.19-1.08,4.72-.5,1.08.41,1.93,1.42,3.27,1.05l1.23.2a33.62,33.62,0,0,0,13.42,6.73v0a7.07,7.07,0,0,1,.76,4.6c0,.4-.06.8-.1,1.2l.06,0c-2.29,2.79-3.47,6.13-4.66,9.46-.87.12-1.24.55-.91,1.43l-.43,1.27c-1.5.43-1.29,2-1.85,3-2.19,3.89-4.18,7.88-6.24,11.84-.57.56-1.53.83-1.35,1.92a115.51,115.51,0,0,0-8,11.54,40.45,40.45,0,0,0-6.08,8.05c-1.82.55-2.95-.56-4-1.74-3.87-4.53-7.57-9.22-11.63-13.57-1.68-1.82-2.26-3.35-1.14-5.5a8.1,8.1,0,0,0,3.25-4.13,33,33,0,0,0,6.72-10,54.68,54.68,0,0,0,6.8-12.7c.63-.57,1.44-1,1.23-2.09C421,457.09,423.27,453.35,423.76,448.88Z"/><path class="cls-5" d="M418.27,375.63l1.69.11a2.89,2.89,0,0,0,3.75,1.48l.83.29c.6,3.06,1.25,6.1,1.78,9.16.49,2.8-.74,5.87,1.33,8.42q0,5.63,0,11.25c-2.1,3-1,6.35-1.18,9.56-.61,3.12-1.58,6.18-1.4,9.42a25.24,25.24,0,0,0-1.58,7.77c-2.25,1.94-1.76,4.94-2.63,7.39a81.63,81.63,0,0,0-2.87,8.41l-.33,2c-2.73,3.38-3.71,7.56-5.33,11.45-.8,2-2,2.31-3.86,1.22-1-.59-1.95-1.53-3.3-1.39l-.85-.76a48.07,48.07,0,0,0-11.59-7.81,26.73,26.73,0,0,0-8.07-5.33c-1.81-2-4.29-2.92-6.55-4.2-4.32-4-9.59-6.61-14.38-9.93l.06-2.79a7.11,7.11,0,0,0,1.19-4c.08-1.34.17-2.68.26-4a5.67,5.67,0,0,0,1-4.05c.09-1.34.19-2.68.29-4,1.87-3.12,1.56-6.66,1.92-10.07.07-1.73.13-3.46.2-5.19l.64-.83,0,0c1.61-.41,1.15-1.81,1.11-2.77-.12-2.88,1-4.66,3.63-6,1.66-.87,3.71-1.42,4.77-3.27,3.23-.91,5.86-2.93,8.56-4.79,1.9-1,4-1.57,5.37-3.43,3.85-1.19,6.68-4.08,10.08-6a16,16,0,0,1,7.5.78A44.11,44.11,0,0,0,418.27,375.63Z"/><path class="cls-1" d="M417.63,352c.08.45.15.89.23,1.34-.24.91.13,1.37,1,1.45h0c-.28,2.63,1.26,4.83,2,7.18a13.69,13.69,0,0,1,.69,5.42l-1.19.08c-.12-.86-.56-1.29-1.46-1.09-4.3-.52-8.12-3.09-12.57-3-.33-.29-.65-.83-1-.84-3.79-.15-4.35-2.54-4.08-5.62a4.61,4.61,0,0,0-.46-1.53c-.16-1.51.54-3.25-1.13-4.37-.05-1.9-.1-3.79-.16-5.69.94-1.45-.06-2.72-.3-4.1-.48-2.65-1.66-5.77.37-7.85,1.64-1.69,4.13-3.58,7.09-1.86,1.32,3.56,3.57,6.59,5.6,9.74q2.24,4.75,4.45,9.52Z"/><path class="cls-5" d="M394.13,354.74l0,14.14-.05,0a1.33,1.33,0,0,0-1.51,1.22l-1.18.21c-7.48,3.62-14.92,7.31-22.45,10.81-1.83.85-3.54,2.37-5.84,1.92a.9.9,0,0,0-.58-.14,1.74,1.74,0,0,0-2.05-1.36h0a53.89,53.89,0,0,0-12.14-9.37,121.56,121.56,0,0,0-12.11-8.7l0,0c-.43-.76-.89-1.5-1.94-1.4-.51-1.58-2.2-1.77-3.22-2.75-1-1.15-1.85-2.42-3.54-2.58l-1-.65c.09-.36-.1-.46-.41-.45-.26-.62-.8-.69-1.37-.68-.59-1.55-2.1-2-3.34-2.72a1,1,0,0,0-.62-.21c-.85-2.07-2.94-2.58-4.59-3.63-1.57-.8-2.45-2.54-4.21-3.07a13.28,13.28,0,0,1-.35-3.47c0-5.87,2-11.52,1.75-17.4a.91.91,0,0,0,0-.63,40.73,40.73,0,0,0,1.4-8.83c.08-4.21,1.1-5.34,5.43-6,1.2-.18,2.49-.12,3.26-1.34,4.42-.14,8.53-1.68,12.72-2.83a68.75,68.75,0,0,0,8.61-2.06c1.81-.67,4.18.2,5.49-1.87l0,0c2.13-.06,4.27-.2,6.1,1.24a.66.66,0,0,0,.52.19c.18.78.56,1.33,1.48,1.21,1.94,1.44,3.61,3.28,6,4.08a8.62,8.62,0,0,0,3.47,2.71c.14,1.15,1,1.35,1.91,1.42l0,0,.73.57,0,.06c0,.4.21.64.64.63l.06,0a3,3,0,0,0,2.54,1.52h-.06c3.2,3.75,7.29,6.29,11.58,8.55l.06,0a10.33,10.33,0,0,0,5.3,4.06h0c1.73,1.8,1.87,4,2,6.4C393.21,340.63,391.74,347.82,394.13,354.74Z"/><path class="cls-2" d="M282.07,352.14a.34.34,0,0,0,.42,0,65,65,0,0,0,13.44-5.44,6.4,6.4,0,0,1,5.44,1.6,59.5,59.5,0,0,0,5.33,3.78c.16,1.18,1.08,1.28,2,1.39h0c4.45,4.41,9.9,7.49,14.88,11.22a29.1,29.1,0,0,0,6.06,4.13,36.61,36.61,0,0,0,8.7,6.7.42.42,0,0,0,.42.17,1.84,1.84,0,0,0,1.56,1.3l2.35,1.46a3.73,3.73,0,0,0,3,2.54h0a.52.52,0,0,0,.69.49c3.73,2.86,7.23,6.05,11.46,8.22.18,1.12.94,1.44,1.95,1.41h0a1.45,1.45,0,0,0,1.41,1.29h0l-.14,9.46c0,1.45,0,2.9,0,4.35-2.53,2.46-1.66,5.52-1.49,8.46a14.65,14.65,0,0,0-.21,5.36c-2.32,1.94-1.24,4.59-1.33,6.92-.11,2.92-.87,4.6-4.22,4.62a27.13,27.13,0,0,0-8,1.63c-2.91.95-6.33.09-8.79,2.44l-2.63.12a3.53,3.53,0,0,0-4,1.27l-2.7.24c-1.61-.15-3.16-.11-4.22,1.39h-1.2c-1.86-.84-3.26-.2-4.38,1.35l-.94-.08c-2-.61-4.23,0-6.18-1-.79-.86-1.48-1.85-2.74-2.08,0-.87-.38-1.3-1.29-1.09l-.74-.27-.57-.4c-.19-.69-.72-.85-1.35-.84-2.22-3.16-5.64-4.78-8.75-6.8-2.24-1.72-4.43-3.54-6.75-5.15-6.11-4.24-11.63-9.3-18.1-13A1.31,1.31,0,0,0,269,408a6.74,6.74,0,0,1-2.64-2.83c.66-8.12-2-16-1.57-24.16.06-1.12-.69-2.28-1.06-3.43,0-1.11,0-2.21,0-3.32.08-4.32.18-8.64-1.4-12.78a1,1,0,0,0,.14-.58,2.14,2.14,0,0,0,1.92-1.55l1.39-.22c1.45.38,2.47-.79,3.62-1.23C273.66,356.22,278.3,355.11,282.07,352.14Z"/><path class="cls-3" d="M179,528.83c-2-3.05-1.22-4.56,2.28-5.94,6-2.38,11.81-5.45,17.68-8.27a8.94,8.94,0,0,0,1.55-1.22c1.91.28,2.94,2.1,4.69,2.66a40.11,40.11,0,0,0,10.13,8.68l0,0c0,.83.41,1.34,1.3,1.37a15.3,15.3,0,0,0,5.29,4.08c.29,1.45,1.5,2.09,2.56,2.8,2.49,1.66,3.81,3.38,1.66,6.42-.63.89-1.87,2-1.42,3.53l-5.43,12c-5.8.33-10.58-2.65-15.6-4.84a4.27,4.27,0,0,0-1.86-.5c-2.17-1.46-4.39-2.84-6.49-4.39-5.51-4.08-10.5-8.67-14.19-14.55C180.69,530,180.19,528.87,179,528.83Z"/><path class="cls-5" d="M390.18,495.24a.43.43,0,0,0-.2.47l-.79.79c-1.35,1.92-3.61,3-4.65,5.22-3.07,2.09-5.24,5.12-7.91,7.63-1.94,1.89-4.83,2.7-6.06,5.39-2.53,1.6-5.28,2.93-6.88,5.65-2.87,2.18-5,1.22-7.4-1.14-4.18-4.07-8.81-7.67-13.2-11.53-.59-.52-1.07-1.11-1.91-1.17a1.4,1.4,0,0,0-1.52-1.3l0,0a1.43,1.43,0,0,0-1.4-1.31h0c-.24-1.45-1.54-1.68-2.56-2.24-3.58-4.09-8-7.19-12.19-10.6a3.76,3.76,0,0,0-2.79-2.54l0,0c-.48-1.57-1.89-2.2-3.09-3v-2.17c1.39-.75,1-2.07,1.06-3.26.25-5.1.22-10.23.83-15.28.48-4,1.46-7.93.87-12,.14-1,.28-1.91.41-2.86a1.27,1.27,0,0,0,1.33-.48v0a2.59,2.59,0,0,0,2.82-1.25c2.46.61,4.36-1.29,6.64-1.49,5.56-1.54,11.21-2.8,16.61-4.77,1.84-.66,4.4.57,5.57-1.9l2.7-.6c1,0,2,.15,2.64-.85l1.49-.08a10.11,10.11,0,0,0,1.3,1.46c7.57,5.88,15.14,11.77,22.77,17.59,2.17,1.65,4.52,3.06,6.78,4.58a.48.48,0,0,0,.48.22,18.31,18.31,0,0,0,6.86,5.31c1.25,2.06,3.54,2.81,5.31,4.21.66.88,1.57,1.64,1.24,2.93a1.76,1.76,0,0,0-1.15,1.6,1.35,1.35,0,0,0-.24.61,1.44,1.44,0,0,0-1.23,1.32c-2.43,3.58-5.22,6.92-7.19,10.8C393.68,491.14,391.47,492.79,390.18,495.24Z"/><path class="cls-5" d="M228.69,421.65c4.35-1.71,9.1-2.5,12.85-5.59l1.29-.15c1.5.95,1.42-1,2.25-1.23a48,48,0,0,0,10.52-4.12c4.49,3.3,8.73,7,13.53,9.85a3.06,3.06,0,0,0,2.5,1.59c2.73,3.54,6.74,5.41,10.28,7.89l.28.14h.32l.64.7,0,0c0,.45.28.62.7.61l.26.1h.28c.16.81.57,1.33,1.49,1.27h0a1.16,1.16,0,0,0,1.32,1.16.44.44,0,0,0,.52.24l.82.54,0,.09a.56.56,0,0,0,.62.63l.25.11h.28c6.7,5.52,13.46,11,21,15.4l1.35,1.33c.05,7.2-1.29,14.25-2.33,21.34a73.39,73.39,0,0,0-.4,8c-.14,4.14-1.18,4.87-5.08,5.8-5,1.19-10.11,1.69-14.94,3.52a13.54,13.54,0,0,1-4.3.4c-1.26,0-2.46.08-3.21,1.32l-1.32.07c-1.88.08-3.95-.64-5.4,1.28l-1.29.09-6.77-.08-.08,0-.6-.59-.05-.08c0-.42-.18-.6-.59-.56l-.72-.13c-.08-.79-.42-1.31-1.32-1.18-4-3.76-8.62-6.68-13.18-9.68a5.21,5.21,0,0,0-3.59-2.61h0c-.09-.84-.67-1.1-1.41-1.15-.21-.67-.77-.72-1.33-.77-.26-1.34-1.38-1.91-2.36-2.57a128.69,128.69,0,0,1-14.44-10.92c0-.44-.09-.89-.14-1.33-.22-7-1.76-13.83-1.32-20.83,0-.77-.52-1.18-1.17-1.46l-.12-4.59c0-1.68,0-3.35,0-5,0-3.13-1.08-6.63,2.75-8.54Z"/><path class="cls-5" d="M265,505.87c-1.61,3-1.22,6.24-1.34,9.4-.25,6.56-1,7.17-7.46,8.28-5,.86-9.9,2.32-15,2.77-.65.06-.91.56-1.16,1.07-5.7,1.38-10-1.25-14-4.82a28.67,28.67,0,0,0-6.36-4.73,6.25,6.25,0,0,0-3.64-2.65l-.6-.3a9.84,9.84,0,0,0-4.76-3.75c-3.47-2.76-8.17-4.69-7-10.54a22.52,22.52,0,0,0,0-3.58c-.26-1.69,1-3.79-1.24-5-.06-1.61-.12-3.22-.19-4.84.47-1.65.05-3.32.13-5,.09-2.13-1.17-4.4.53-6.4l1.66-.2.67-.59,1.34-.44a2.61,2.61,0,0,0,3-1.47.25.25,0,0,0,.34,0,2.1,2.1,0,0,0,2.34-1.34c1.41-.15,3.05.37,3.9-1.36,1.94.37,3.59-.83,4.92-1.67,2.4-1.52,4.22-1,6.25.26,1.6,2.65,4.28,3.88,6.84,5.28a.42.42,0,0,0,.42.18,1.78,1.78,0,0,0,1.54,1.3,4.28,4.28,0,0,0,2.38,1.44,2,2,0,0,0,1.6,1.28l0,0a1.47,1.47,0,0,0,1.42,1.31h0c7.07,5.28,14.09,10.61,21.22,15.81,1.81,1.32,2.8,2.76,2.42,5C265.07,502.34,265,504.11,265,505.87Z"/></svg>